<svg xmlns="http://www.w3.org/2000/svg" viewBox="0 0 256 256" fill="none" shape-rendering="auto"><metadata xmlns:rdf="http://www.w3.org/1999/02/22-rdf-syntax-ns#" xmlns:xsi="http://www.w3.org/2001/XMLSchema-instance" xmlns:dc="http://purl.org/dc/elements/1.1/" xmlns:dcterms="http://purl.org/dc/terms/"><rdf:RDF><rdf:Description><dc:title>Croodles - Doodle your face</dc:title><dc:creator>vijay verma</dc:creator><dc:source xsi:type="dcterms:URI">https://www.figma.com/community/file/966199982810283152</dc:source><dcterms:license xsi:type="dcterms:URI">https://creativecommons.org/licenses/by/4.0/</dcterms:license><dc:rights>Remix of „Croodles - Doodle your face” (https://www.figma.com/community/file/966199982810283152) by „vijay verma”, licensed under „CC BY 4.0” (https://creativecommons.org/licenses/by/4.0/)</dc:rights></rdf:Description></rdf:RDF></metadata><mask id="viewboxMask"><rect width="256" height="256" rx="128" ry="128" x="0" y="0" fill="#fff" /></mask><g mask="url(#viewboxMask)"><rect fill="#d1d4f9" width="256" height="256" x="0" y="0" /><path d="M175 107.8c.3.4.5.8.4 1.3 1.9 2.3 3.5 5 4.8 8 1.2-.4 2.5-.7 3.9-.6 1.7.2 3.3 1.1 4.4 3 2 3.5 3.4 8 1.8 14.6a7.9 7.9 0 0 1-2.7 4.6 6 6 0 0 1-2.4 1 54 54 0 0 1-1.6 15 55 55 0 0 1-46 38.4c-24 2.2-47.9-4.1-59.6-27a43 43 0 0 1-5.7-17.5c-1.4 0-2.9-.6-4.1-2a15.5 15.5 0 0 1-3-8.3c-.7-5.7.2-9.9 2-12.4 1-1.3 2.2-2.2 3.6-2.6 1.2-.4 2.6-.3 3.8.2a33.1 33.1 0 0 1 4-9l.3-.7c2.9-4.9 8.8-9.4 16.2-13a89.6 89.6 0 0 1 26.3-7.5c19-2.5 40.4.5 53.6 14.5Z" fill="#ffffff"/><g stroke="#000" stroke-width="3" stroke-linecap="round" stroke-linejoin="round"><path d="M78.7 115c-6.1 8.7-10.8 34.3-.6 51 11.6 22.5 35.3 28.9 59.6 26.6a54.7 54.7 0 0 0 45.7-38A56 56 0 0 0 175 109"/><path d="M181.2 118.4c2.6-1.2 5.6-1.7 7.4 1.5 1.9 3.2 3.2 7.3 1.7 13.6-1 4-3.3 4.9-5.3 4.9M73 124.6c-4.2-2-9.1 2.3-7.8 13.4 1 7.8 4 9.5 6.5 9.2"/></g><g transform="translate(113 126)"><path d="M15.3 18c-4 .9-7.2 6.8-4 10 4 4 12.3 4.7 13.1 0 .7-3.9-1.3-6-2.7-6.7" stroke="#000" stroke-width="3" stroke-linecap="round" stroke-linejoin="round"/></g><g transform="translate(62 112)"></g><g transform="translate(98 169)"><path d="M43.8 10.4c-8 1.5-20.5 1-22.4 2.4-3.4 3.7 16.2 1.3 20.5.8 8.8-1 11.7-4.9 2-3.2Z" stroke="#000" stroke-width="3" stroke-linecap="round" stroke-linejoin="round"/></g><g transform="translate(-2 4)"><path d="M94.4 104c5-3.2 18.6-14.7 21.9-17M73.2 111.4c4-4.3 14.6-18.7 17.3-21.6M81.2 107.9a242 242 0 0 1 17-18M89.5 103.5a120 120 0 0 0 12-11M105.3 84.3c5-.5 9.4-6 11.5-8.7M174.4 104.7c7-.6 16.2-6.3 19-7.1M67 109.2c2.7-3.3 9.3-8.2 10.4-12M102.6 102.4c6.4-5.3 19.7-16.2 22-17.5M110.8 100.8c4.8-3.5 15.5-11.4 20.3-15.4M117.4 101.5l19.2-16c2.2-1.6-9.9 11-13.2 14.9M129.4 99.7c4.2-3.9 13.2-12 15.4-13.7M137.1 97.5c4.4-3.9 13.7-12 15.9-14.3M144.2 96.4c3.7-3.5 11.8-11 14.8-13.2M148.6 97.7c2.7-2.3 10.7-8 20.3-12.5M156.8 98c3.5-2.7 12-8.8 18.7-11.5M164 97.5c1.4-1.5 6.2-5.3 13.6-8.8M70.8 97.5c3.9-2.2 6-4.4 7.2-16M93.3 77.8c-5.5 3.8-8.2 3.8-12 6M81.2 94.2c1.7-2.9 7-8.8 14.3-9.9M118 71.7c-2 .4-7 2.1-10.5 6M192 83.2a18 18 0 0 0-5.7 8M195.2 92a18 18 0 0 0-8.8 4.4M182.6 93.6c-1 .7-3.3 3-4.2 6M126.6 69.1c-1.7 1.1-5.7 4.8-2.5 12.4M135.5 71.2c-2 .4-7.2 2.2-7.2 10.4M142.6 81.6c4.7-2.2 14.8-7.8 17-12.6M138.2 81.6c4.4-4.4 10.4-7.7 15.9-12M132.7 82.2c3.9-3.3 7.2-8.3 10.4-12.7M165 73.4l-11.5 5M175.5 75.6c-.5 0-9.7 6.5-14.3 9.8M172.3 83.2c3.7-1.2 9.6-2.7 12.3-3.2M171.6 97.5a89 89 0 0 0 11.5-11M97.1 75.6c0-1 1-2.8 5-2.8M170.7 71.7c.4.9-1.8 4.4-9 8.3M102.6 88.7a70 70 0 0 0 15.9-6.6M106.4 71.2c-1 3.5-4.2 11.3-8.2 14.8" stroke="#f24e1e" stroke-width="3" stroke-linecap="round" stroke-linejoin="round"/></g><g transform="translate(69 153)"></g><g transform="translate(72 106)"><path d="M21 41.9c.6-1 2.2-3 4-3.2M25.8 45.2l2.8-5M32.5 41.8c0 1.1-1.2 5.4-1.2 5.4M21.3 32.1c1.2 2.8 5 8.4 10.3 9.2 5.4.7 9.2-1.1 10.4-2.1M80.8 40.3V44M84.4 39.4 86 43M87.8 38.4c.7.7 2.6 2 2.6 3M72.8 35c1.2 1.5 4.2 4.3 6.5 4.3 3 0 8.2-.8 12-4.3M21.1 22c1-1.6 4.6-4.9 11-5.3 6.5-.4 9.1 1.2 9.7 2M73.7 20.7c1.5-2 5.9-6.2 11.5-6.2 2.3.4 7.1 2.1 8.8 6.6" stroke="#000" stroke-width="3" stroke-linecap="round" stroke-linejoin="round"/></g></g></svg>