<svg xmlns="http://www.w3.org/2000/svg" viewBox="0 0 256 256" fill="none" shape-rendering="auto"><metadata xmlns:rdf="http://www.w3.org/1999/02/22-rdf-syntax-ns#" xmlns:xsi="http://www.w3.org/2001/XMLSchema-instance" xmlns:dc="http://purl.org/dc/elements/1.1/" xmlns:dcterms="http://purl.org/dc/terms/"><rdf:RDF><rdf:Description><dc:title>Croodles - Doodle your face</dc:title><dc:creator>vijay verma</dc:creator><dc:source xsi:type="dcterms:URI">https://www.figma.com/community/file/966199982810283152</dc:source><dcterms:license xsi:type="dcterms:URI">https://creativecommons.org/licenses/by/4.0/</dcterms:license><dc:rights>Remix of „Croodles - Doodle your face” (https://www.figma.com/community/file/966199982810283152) by „vijay verma”, licensed under „CC BY 4.0” (https://creativecommons.org/licenses/by/4.0/)</dc:rights></rdf:Description></rdf:RDF></metadata><mask id="viewboxMask"><rect width="256" height="256" rx="128" ry="128" x="0" y="0" fill="#fff" /></mask><g mask="url(#viewboxMask)"><rect fill="#ffdfbf" width="256" height="256" x="0" y="0" /><path d="M73.3 106.5c2-5.5 4-9.8 5.4-12.2-.1-.4 0-.8.1-1.1 3-4.9 9-9.3 16.4-12.9a90.7 90.7 0 0 1 26.3-7.5c19.2-2.5 40.7.5 53.9 14.4.2.3.4.6.4 1 1 1.1 2.2 3.2 3.6 6a109 109 0 0 1 4.4 10.2c1.4-.5 3-.7 4.6-.5a7 7 0 0 1 5.4 3.3c2 3.5 2.9 10 1.6 15.8a6.7 6.7 0 0 1-2.6 4.2 6 6 0 0 1-2.3 1c.5 2.8 1 5.6 1.3 8.5 2.8 23.3-1.3 49.6-26 62.6-23.6 12.4-47 16-65.6 12.3-18.7-3.8-32.6-15-36.7-32.5-3.2-13.5-1.3-31 2.2-46.7-1.5-.3-3-1.4-3.9-3-1.3-2.1-2-5.2-1.7-9.2.5-6.2 2.1-10.6 4.8-12.8a7 7 0 0 1 4.6-1.8 9 9 0 0 1 3.8.9Z" fill="#ffffff"/><g stroke="#000" stroke-width="3" stroke-linecap="round" stroke-linejoin="round"><path d="M79 93.7c-6 10-22.2 57.6-15.5 86.4 8.1 34.4 54.6 44.9 102.1 19.7C214.3 174 182.2 95.5 175.3 88"/><path d="M184.3 105.4c2.6-1.1 7.4-1.3 9.3 2 1.8 3.2 2.7 9.3 1.4 15.1-.7 3.3-3 4.3-5 4.3M72.5 107.8c-5.9-3.5-11.4-.2-12.4 12.2-.7 7.9 2.9 11.4 5.4 11"/></g><g transform="translate(116 120)"><path d="M21.7 10c5 4 12 23 6 29S19 34.3 14 34.3c-5.1 0-9 6-8.5-1 .4-5.6 4-5.5 4.7-5.8" stroke="#000" stroke-width="3" stroke-linecap="round" stroke-linejoin="round"/></g><g transform="translate(57 132)"></g><g transform="translate(86 184)"><path d="M34 10c-7.2 0-14-1.2-17-2 1 2.6 6.4 8.3 17 8.3 12 0 16.5-5.5 18.3-8.3-6 1.8-11 2-18.3 2Z" stroke="#000" stroke-width="3" stroke-linecap="round" stroke-linejoin="round"/></g><g transform="translate(-2 -17)"><g stroke="#699bf7" stroke-width="3" stroke-linecap="round" stroke-linejoin="round"><path d="M128.8 94.7c-5.1-11.1-20.3-14-29.3 0-12 18.2-2.1 57.6-5.6 83.7-3.5 26-21.4 55.8-44.4 55.8s-40-14.6-38.2-33.1"/><path d="M122.6 83c-9-7.9-34.3-9-38.3 46.7-3.7 53.6-11.7 64.6-28.6 81-15.8 15-36 17.7-50 10.6"/><path d="M126 80.7c-11.3-15.7-37.1-9.8-46.7 2-12 14.7 0 77 0 98.8 0 21.8-10.1 42.6-41 47"/><path d="M126.5 77.4c-4.5-13-19.1-19.7-35.4-10.1-21.5 12.5-22.1 32-26.3 69.5-4.3 37.4-2.3 70.3-33.9 81.1-18 6.2-33.7-9.5-25.8-26.4"/><path d="M31.5 200.5c33.7-5 43.3-42.7 44.4-77.6 1.6-49.5 36-60.1 50.6-41M130.4 88c8.5-4.7 34.9-4.9 38.3 24.8 4.2 37-5.5 72.4 7.8 107.4 5.5 14.3 26 23.6 37.7 19"/><path d="M131.6 82.8c10.7-4.5 31-7.7 38.2 6.4 9.1 17.6 1 83 7.3 103.4 6.3 20.4 27 37.1 41.6 27.6"/><path d="M128.2 80.7c-.7-9 12.4-27 28.1-18.5a59.4 59.4 0 0 1 32 42.2c5.7 39.9 2.1 60 5.7 86 3.5 25.9 16.1 46.2 59 32.9"/><path d="M129.3 80.2c4.5-7.9 12.4-14 26.4-9.6 17.6 5.6 30.6 29.1 30 94.8-.8 65.8 6 75.6 24.6 79.5 18.5 4 30.7-10.4 35.4-18.6"/><path d="M135.5 78c16.9-10.4 55.1-7.8 60.2 27.5 6.2 44.1-3.6 96.4 2 112.5 5.6 16.1 21.4 19.2 34 15.7"/></g></g><g transform="translate(71 151)"><g stroke="#000" stroke-width="3" stroke-linecap="round" stroke-linejoin="round"><path d="M65.3 21.1c-6-2.3-20.4-2.7-28.3 2.8-8 5.5-10.1 7-5.9 7.8A74 74 0 0 0 62.8 29a7 7 0 0 0 3.3-7.3"/><path d="M85.4 20c-12-4.3-17-1-18.6 2.7-.7 1.5-1.2 4.8 1.3 5.8 3 1.2 22.8 1.3 32-1.6 2.6-2.2-3.4-2.8-14.7-6.8Z"/></g></g><g transform="translate(71 89)"><g stroke="#000" stroke-width="3" stroke-linecap="round" stroke-linejoin="round"><path d="M30.5 41.3c-5.1.3-8.2-4-9.2-6C27 30 35.5 33 39.1 35c-.7 2-3.4 6-8.6 6.3Z"/><path d="M28.6 37.2c.8.5 2.7 1.1 4-.8 1.6-2.4-2.4-5-3.7-3.8-1 1-.6 2.4-.2 3M90.7 35.2c1-.4 2.6-1.8 1.6-4-1.2-2.8-5.8-.8-5.5 1 .3 1.5 1.9 2 2.6 2"/><path d="M90.7 38.8c-5 1.2-9-2.8-9.8-5.5 4.6-6 15-3.5 17.6-1.3-.4 2-2.8 5.7-7.8 6.8ZM17.3 21c5.5-1.1 18.3-1.5 25.2 5.1M75.6 25.7c3.3-5.4 14.2-11.2 22-7.6"/></g></g></g></svg>