<svg xmlns="http://www.w3.org/2000/svg" viewBox="0 0 256 256" fill="none" shape-rendering="auto"><metadata xmlns:rdf="http://www.w3.org/1999/02/22-rdf-syntax-ns#" xmlns:xsi="http://www.w3.org/2001/XMLSchema-instance" xmlns:dc="http://purl.org/dc/elements/1.1/" xmlns:dcterms="http://purl.org/dc/terms/"><rdf:RDF><rdf:Description><dc:title>Croodles - Doodle your face</dc:title><dc:creator>vijay verma</dc:creator><dc:source xsi:type="dcterms:URI">https://www.figma.com/community/file/966199982810283152</dc:source><dcterms:license xsi:type="dcterms:URI">https://creativecommons.org/licenses/by/4.0/</dcterms:license><dc:rights>Remix of „Croodles - Doodle your face” (https://www.figma.com/community/file/966199982810283152) by „vijay verma”, licensed under „CC BY 4.0” (https://creativecommons.org/licenses/by/4.0/)</dc:rights></rdf:Description></rdf:RDF></metadata><mask id="viewboxMask"><rect width="256" height="256" rx="128" ry="128" x="0" y="0" fill="#fff" /></mask><g mask="url(#viewboxMask)"><rect fill="#ffd5dc" width="256" height="256" x="0" y="0" /><path d="M174.2 103.2c.4.4.5 1 .3 1.5.3.1.5.3.7.6 2.3 4.5 4.5 9.8 6.4 15.5l.7-.2 1.7-.7c1-.3 2.1-.6 3.3-.7 1.1 0 2.4.1 3.5.9 1 .7 1.8 2 2.2 3.5 1.3 5.7 1.3 9.3 0 15.2a7 7 0 0 1-2.1 4c-1 .7-2 1-3 1.1a159.9 159.9 0 0 1 2.6 21.4c0 2.7-.1 5-.4 7-.4 2-1 3.7-1.9 5a38.7 38.7 0 0 1-18.6 10.3 150.8 150.8 0 0 1-59.5 4.1 62 62 0 0 1-24-7.5c-4.3-2.7-7.3-8-9.4-14.3a91.6 91.6 0 0 1-4.1-22.5c-3.3 0-7.4-3.2-9.8-11.2-1.3-4.7-1-8.7 1.1-11.2 2.2-2.4 5.7-2.8 9.5-1.7.8-5.8 2.2-10.7 4.1-14l.5-.4a38 38 0 0 1 16.2-12.6 90.5 90.5 0 0 1 26.2-7.5c19.2-2.5 40.6.5 53.8 14.4Z" fill="#ffffff"/><g stroke="#000" stroke-width="3" stroke-linecap="round" stroke-linejoin="round"><path d="M174.8 105c11.3 21.8 19.2 65 13.4 72.3C175 194 109 199 86 184.2c-15.5-10-16.5-61.2-8.3-75M183 121.7c3-1 8.5-3.8 9.8 1.8 1.3 5.6 1.3 9 0 15-.7 3-2.3 4-4.3 4"/><path d="M72.2 124.3c-7.6-2.4-12.1 2-9.4 11.4 2.6 9 7 10.8 9.4 10.3"/></g><g transform="translate(112 122)"><path d="M13.3 12C15 28 20.7 22.4 23 31.3c2 7-9.2 7.7-12.1 5.4" stroke="#000" stroke-width="3" stroke-linecap="round" stroke-linejoin="round"/></g><g transform="translate(63 112)"></g><g transform="translate(98 168)"><path d="M34 10c-7.2 0-14-1.2-17-2 1 2.6 6.4 8.3 17 8.3 12 0 16.5-5.5 18.3-8.3-6 1.8-11 2-18.3 2Z" stroke="#000" stroke-width="3" stroke-linecap="round" stroke-linejoin="round"/></g><g transform="translate(-3 -1)"><g stroke="#699bf7" stroke-linecap="round" stroke-linejoin="round"><path d="M74 67.7c-4.4 16 1.5 23 1.5 26.3 0 3.3 4.2-19.4 6.4-31.9l-3 40.1 9.9-43.1-3.4 47.8 9.7-49.8-3 52.2c.3-4.2 6.6-37.3 9.6-54.5L99 109.3l9.3-52.2-1.4 52.2 8.7-52.2-2 54.8 9.4-54.8-1.5 54.8 7.6-52.2V112l7.7-48.8v48.8l7-46.3c-.8 17.6-.5 50.3 0 46.3l6.5-44.2-.9 44.2 7.3-41.3-.8 41.3 6.7-39v35.7l6-33.7-1.3 33.7 6-28.6.7 27 3-27 1.3 21.2 4.4-17v18" stroke-width="6"/><path d="M178.2 107.6c-17.1 10-88.5 9.2-100.1-3.8-17.8-20-9.9-38.6 1.8-43.4 11.6-4.8 21.1-14 57.6 0 36.6 14 53.2 18.7 50 38.7-3 20-23.9 25.6-46.4 21-22.6-4.6-52.1 10.1-59.7-3.3-1-1.6-2.7-5.7-1.5-9.2" stroke-width="3"/><path d="M184 108.4c4-8.8 15.3-28 28.6-34.8" stroke-width="3"/><path d="M190 101.5a36 36 0 0 0 19.6-9.4c7-7.7 14-15.8 12-22.6-1.8-6.9-12.2 1-17.1.5-5-.5-20.3 25.2-18.5 32.5" stroke-width="3"/></g></g><g transform="translate(68 149)"><path d="M63.3 24.1c-4.7-1.7-22.6 3-28 1.5-5.3-1.5-8.6-4.8-6.6-7.3s2.5-1 3.3 0c.7.8 1.6 1.5 3 1.2 2-.4 3.3-1.7 2.2-3.7-1.3-2.5-10.8-2.5-11.7 0-.8 2.5-1.8 10.6 7.4 12.6 9.1 2 29-3.6 30.4-2.8 1.3.8 13.5 2.2 22.8 1.7 9.4-.6 19-7.2 16.6-11.5-2.5-4.4-14-2.9-11.8-.4.7.6 2.6 1.5 4 .4 1.6-1.5 4.4 1.2 0 5.3-3.4 3-24.1 6-29.6 3" stroke="#000" stroke-width="3" stroke-linecap="round" stroke-linejoin="round"/></g><g transform="translate(71 103)"><path fill-rule="evenodd" clip-rule="evenodd" d="M36.8 29v-.2c0-.8-.7-1.5-1.5-1.4-1.4 0-3.5.5-5.3 1.4a7.8 7.8 0 0 0-4.3 5.4c-.5 3 0 5.3 1 6.9 1 1.5 2.4 2.3 3.1 2.7a13.6 13.6 0 0 0 5.4.6c1.2 0 2.5-.4 3.6-1.1 1.1-.8 2-2 2.3-3.6a12 12 0 0 0-.7-7 7 7 0 0 0-3-3.6l-.6-.1Zm-7.3 4a4.1 4.1 0 0 0-.9 2.2l.4-1 .5-1.1Zm1.3 4.4-.1.3.2.2v-.5Zm3-2.1v.5-.5Zm-1.8-3c.7-.2 1.6.1 2 .9l-.8.3.7-.3a4.6 4.6 0 0 1 .1.2 6.9 6.9 0 0 1 .4 1.5c0 .3 0 .8-.2 1.2-.5 1-1.4 1.3-2 1.3-.8 0-2-.2-2.4-1.4a2 2 0 0 1 0-1.5 2 2 0 0 1 1-1l.3-.2c.1-.4.4-.7.9-1Zm-.6 2.8ZM86 27V27c0-.9-.7-1.5-1.6-1.4-1.3 0-3.4.4-5.2 1.4a7.8 7.8 0 0 0-4.3 5.4c-.6 3 0 5.2 1 6.8 1 1.6 2.4 2.4 3.1 2.8a13.6 13.6 0 0 0 5.4.6c1.2-.1 2.5-.4 3.6-1.2 1.1-.7 2-2 2.3-3.6a12 12 0 0 0-.7-6.9 7 7 0 0 0-3-3.6l-.6-.1Zm-7.4 4.1a4.1 4.1 0 0 0-.8 2.1l.4-1c0-.4.2-.7.4-1Zm1.4 4.4-.2.3.3.2-.1-.5Zm3-2.1-.1.2v.2l.1-.4Zm.9 4a1.5 1.5 0 1 1 3 0 1.5 1.5 0 0 1-3 0Zm-2.7-7c.7-.3 1.6 0 2 .8l-.8.4.7-.4a4.6 4.6 0 0 1 .1.3 6.8 6.8 0 0 1 .4 1.5c0 .2 0 .7-.3 1.2-.4 1-1.3 1.3-2 1.3s-1.8-.3-2.3-1.4a2 2 0 0 1 0-1.5 2 2 0 0 1 1-1l.3-.2c.1-.4.4-.8.9-1Zm-.6 2.8Z" fill="#000"/><path d="M27.5 21.8c1-1.3 3.8-3.4 6-2M78 18c1-1.3 4.2-1.4 4.7 0" stroke="#000" stroke-width="3" stroke-linecap="round" stroke-linejoin="round"/></g></g></svg>