<svg xmlns="http://www.w3.org/2000/svg" viewBox="0 0 256 256" fill="none" shape-rendering="auto"><metadata xmlns:rdf="http://www.w3.org/1999/02/22-rdf-syntax-ns#" xmlns:xsi="http://www.w3.org/2001/XMLSchema-instance" xmlns:dc="http://purl.org/dc/elements/1.1/" xmlns:dcterms="http://purl.org/dc/terms/"><rdf:RDF><rdf:Description><dc:title>Croodles - Doodle your face</dc:title><dc:creator>vijay verma</dc:creator><dc:source xsi:type="dcterms:URI">https://www.figma.com/community/file/966199982810283152</dc:source><dcterms:license xsi:type="dcterms:URI">https://creativecommons.org/licenses/by/4.0/</dcterms:license><dc:rights>Remix of „Croodles - Doodle your face” (https://www.figma.com/community/file/966199982810283152) by „vijay verma”, licensed under „CC BY 4.0” (https://creativecommons.org/licenses/by/4.0/)</dc:rights></rdf:Description></rdf:RDF></metadata><mask id="viewboxMask"><rect width="256" height="256" rx="128" ry="128" x="0" y="0" fill="#fff" /></mask><g mask="url(#viewboxMask)"><rect fill="#b6e3f4" width="256" height="256" x="0" y="0" /><path d="M174.2 103.2c.4.4.5 1 .3 1.5.3.1.5.3.7.6 2.3 4.5 4.5 9.8 6.4 15.5l.7-.2 1.7-.7c1-.3 2.1-.6 3.3-.7 1.1 0 2.4.1 3.5.9 1 .7 1.8 2 2.2 3.5 1.3 5.7 1.3 9.3 0 15.2a7 7 0 0 1-2.1 4c-1 .7-2 1-3 1.1a159.9 159.9 0 0 1 2.6 21.4c0 2.7-.1 5-.4 7-.4 2-1 3.7-1.9 5a38.7 38.7 0 0 1-18.6 10.3 150.8 150.8 0 0 1-59.5 4.1 62 62 0 0 1-24-7.5c-4.3-2.7-7.3-8-9.4-14.3a91.6 91.6 0 0 1-4.1-22.5c-3.3 0-7.4-3.2-9.8-11.2-1.3-4.7-1-8.7 1.1-11.2 2.2-2.4 5.7-2.8 9.5-1.7.8-5.8 2.2-10.7 4.1-14l.5-.4a38 38 0 0 1 16.2-12.6 90.5 90.5 0 0 1 26.2-7.5c19.2-2.5 40.6.5 53.8 14.4Z" fill="#ffffff"/><g stroke="#000" stroke-width="3" stroke-linecap="round" stroke-linejoin="round"><path d="M174.8 105c11.3 21.8 19.2 65 13.4 72.3C175 194 109 199 86 184.2c-15.5-10-16.5-61.2-8.3-75M183 121.7c3-1 8.5-3.8 9.8 1.8 1.3 5.6 1.3 9 0 15-.7 3-2.3 4-4.3 4"/><path d="M72.2 124.3c-7.6-2.4-12.1 2-9.4 11.4 2.6 9 7 10.8 9.4 10.3"/></g><g transform="translate(112 122)"><path d="M21.7 10c5 4 12 23 6 29S19 34.3 14 34.3c-5.1 0-9 6-8.5-1 .4-5.6 4-5.5 4.7-5.8" stroke="#000" stroke-width="3" stroke-linecap="round" stroke-linejoin="round"/></g><g transform="translate(63 112)"></g><g transform="translate(98 168)"><path d="M19.5 10c-1.3 2.1.4 7.7 15.3 6.8 14.9-1 19-9 14.5-8.8-6.2.2-10.7 4.2-20.1 2-3.4-.7-8.5-2-9.7 0Z" stroke="#000" stroke-width="3" stroke-linecap="round" stroke-linejoin="round"/></g><g transform="translate(-3 -1)"><path d="M94.4 104c5-3.2 18.6-14.7 21.9-17M73.2 111.4c4-4.3 14.6-18.7 17.3-21.6M81.2 107.9a242 242 0 0 1 17-18M89.5 103.5a120 120 0 0 0 12-11M105.3 84.3c5-.5 9.4-6 11.5-8.7M174.4 104.7c7-.6 16.2-6.3 19-7.1M67 109.2c2.7-3.3 9.3-8.2 10.4-12M102.6 102.4c6.4-5.3 19.7-16.2 22-17.5M110.8 100.8c4.8-3.5 15.5-11.4 20.3-15.4M117.4 101.5l19.2-16c2.2-1.6-9.9 11-13.2 14.9M129.4 99.7c4.2-3.9 13.2-12 15.4-13.7M137.1 97.5c4.4-3.9 13.7-12 15.9-14.3M144.2 96.4c3.7-3.5 11.8-11 14.8-13.2M148.6 97.7c2.7-2.3 10.7-8 20.3-12.5M156.8 98c3.5-2.7 12-8.8 18.7-11.5M164 97.5c1.4-1.5 6.2-5.3 13.6-8.8M70.8 97.5c3.9-2.2 6-4.4 7.2-16M93.3 77.8c-5.5 3.8-8.2 3.8-12 6M81.2 94.2c1.7-2.9 7-8.8 14.3-9.9M118 71.7c-2 .4-7 2.1-10.5 6M192 83.2a18 18 0 0 0-5.7 8M195.2 92a18 18 0 0 0-8.8 4.4M182.6 93.6c-1 .7-3.3 3-4.2 6M126.6 69.1c-1.7 1.1-5.7 4.8-2.5 12.4M135.5 71.2c-2 .4-7.2 2.2-7.2 10.4M142.6 81.6c4.7-2.2 14.8-7.8 17-12.6M138.2 81.6c4.4-4.4 10.4-7.7 15.9-12M132.7 82.2c3.9-3.3 7.2-8.3 10.4-12.7M165 73.4l-11.5 5M175.5 75.6c-.5 0-9.7 6.5-14.3 9.8M172.3 83.2c3.7-1.2 9.6-2.7 12.3-3.2M171.6 97.5a89 89 0 0 0 11.5-11M97.1 75.6c0-1 1-2.8 5-2.8M170.7 71.7c.4.9-1.8 4.4-9 8.3M102.6 88.7a70 70 0 0 0 15.9-6.6M106.4 71.2c-1 3.5-4.2 11.3-8.2 14.8" stroke="#ffc700" stroke-width="3" stroke-linecap="round" stroke-linejoin="round"/></g><g transform="translate(68 149)"><path d="M63.3 24.1c-4.7-1.7-22.6 3-28 1.5-5.3-1.5-8.6-4.8-6.6-7.3s2.5-1 3.3 0c.7.8 1.6 1.5 3 1.2 2-.4 3.3-1.7 2.2-3.7-1.3-2.5-10.8-2.5-11.7 0-.8 2.5-1.8 10.6 7.4 12.6 9.1 2 29-3.6 30.4-2.8 1.3.8 13.5 2.2 22.8 1.7 9.4-.6 19-7.2 16.6-11.5-2.5-4.4-14-2.9-11.8-.4.7.6 2.6 1.5 4 .4 1.6-1.5 4.4 1.2 0 5.3-3.4 3-24.1 6-29.6 3" stroke="#000" stroke-width="3" stroke-linecap="round" stroke-linejoin="round"/></g><g transform="translate(71 103)"><g stroke="#000" stroke-width="3" stroke-linecap="round" stroke-linejoin="round"><path d="M20.8 12.3c1.7-1.3 6.2-2.6 11.3-2 4.5.7 6.4 2.3 7.7 4.3M72.9 14.2c2-3 5.7-3.7 8-4 2.4-.2 5.1-.2 7.3.4M4 21.2l13.7 6.5M48.2 31.5a31.5 31.5 0 0 1 20.5-1.8M96.9 27.3a193 193 0 0 0 13.1-8.6M24.6 49.9c-5-3.1-10.5-15.7-5.9-22.7 5.3-7.8 23.8-8.7 28.1 2.4 2.6 6.5 1.6 12.7 1 14.3-1.9 4.5-10.3 13.9-23.2 6ZM95.5 26.5c-5.6-8-21-8.3-25.4.4-1.9 3.7-3 14.2 4.4 20.2 3.8 3 18 8.2 22.8-5.2 2.2-6.3.4-12.2-1.8-15.4Z"/><path d="M34.4 29.8c-.4.2-1.1 1-.8 1.8.4 1.2 3.4 2.5 3.5.9.1-1.7-.5-2.3-1.2-1.6M81 27.7c-.6.5-1.7 1.8-1 2.3 1 .6 4.2 2.3 4 0-.3-1.9-1.1-1.7-1.5-1.4l-.9.7"/></g></g></g></svg>