<svg xmlns="http://www.w3.org/2000/svg" viewBox="0 0 256 256" fill="none" shape-rendering="auto"><metadata xmlns:rdf="http://www.w3.org/1999/02/22-rdf-syntax-ns#" xmlns:xsi="http://www.w3.org/2001/XMLSchema-instance" xmlns:dc="http://purl.org/dc/elements/1.1/" xmlns:dcterms="http://purl.org/dc/terms/"><rdf:RDF><rdf:Description><dc:title>Croodles - Doodle your face</dc:title><dc:creator>vijay verma</dc:creator><dc:source xsi:type="dcterms:URI">https://www.figma.com/community/file/966199982810283152</dc:source><dcterms:license xsi:type="dcterms:URI">https://creativecommons.org/licenses/by/4.0/</dcterms:license><dc:rights>Remix of „Croodles - Doodle your face” (https://www.figma.com/community/file/966199982810283152) by „vijay verma”, licensed under „CC BY 4.0” (https://creativecommons.org/licenses/by/4.0/)</dc:rights></rdf:Description></rdf:RDF></metadata><mask id="viewboxMask"><rect width="256" height="256" rx="128" ry="128" x="0" y="0" fill="#fff" /></mask><g mask="url(#viewboxMask)"><rect fill="#ffdfbf" width="256" height="256" x="0" y="0" /><path d="M73.3 106.5c2-5.5 4-9.8 5.4-12.2-.1-.4 0-.8.1-1.1 3-4.9 9-9.3 16.4-12.9a90.7 90.7 0 0 1 26.3-7.5c19.2-2.5 40.7.5 53.9 14.4.2.3.4.6.4 1 1 1.1 2.2 3.2 3.6 6a109 109 0 0 1 4.4 10.2c1.4-.5 3-.7 4.6-.5a7 7 0 0 1 5.4 3.3c2 3.5 2.9 10 1.6 15.8a6.7 6.7 0 0 1-2.6 4.2 6 6 0 0 1-2.3 1c.5 2.8 1 5.6 1.3 8.5 2.8 23.3-1.3 49.6-26 62.6-23.6 12.4-47 16-65.6 12.3-18.7-3.8-32.6-15-36.7-32.5-3.2-13.5-1.3-31 2.2-46.7-1.5-.3-3-1.4-3.9-3-1.3-2.1-2-5.2-1.7-9.2.5-6.2 2.1-10.6 4.8-12.8a7 7 0 0 1 4.6-1.8 9 9 0 0 1 3.8.9Z" fill="#ffffff"/><g stroke="#000" stroke-width="3" stroke-linecap="round" stroke-linejoin="round"><path d="M79 93.7c-6 10-22.2 57.6-15.5 86.4 8.1 34.4 54.6 44.9 102.1 19.7C214.3 174 182.2 95.5 175.3 88"/><path d="M184.3 105.4c2.6-1.1 7.4-1.3 9.3 2 1.8 3.2 2.7 9.3 1.4 15.1-.7 3.3-3 4.3-5 4.3M72.5 107.8c-5.9-3.5-11.4-.2-12.4 12.2-.7 7.9 2.9 11.4 5.4 11"/></g><g transform="translate(116 120)"><path d="M13.7 15c3.9 2.1 11 11.9 10.2 17.3-.5 3.6-8.5 2.5-12.9 1.7" stroke="#000" stroke-width="3" stroke-linecap="round" stroke-linejoin="round"/></g><g transform="translate(57 132)"></g><g transform="translate(86 184)"><path d="M44.4 6.5c-4.2 2-20.4 6.7-30.4 4.2 6.2 10 35 11.4 39.6 2.5 5-9.4-4.1-9.3-9.2-6.7Z" stroke="#000" stroke-width="3" stroke-linecap="round" stroke-linejoin="round"/></g><g transform="translate(-2 -17)"><g stroke="#0fa958" stroke-width="3" stroke-linecap="round" stroke-linejoin="round"><path d="M84.5 109.8c-19 22.5 5.5 100.5-7 132-4.3 10.8-20.5 19-33.5 16.5M145 68.3c9-8.5 24.1-7.2 34.5 0 13 9 26 24 31.5 106.5s25 82.5 33.5 81"/><path d="M144.5 79.8c-1.5 4-2 9.4-22 12-29 3.9-50.5-3-59 31s-.4 87.5-8 108.5-22.5 21.5-31 16.5"/><path d="M148.5 79.3c0 10-7 16-21.5 17-20.7 1.5-32.5-6.5-51 17.5-13.4 17.4 2.5 75.5-8 109.5-5 16.2-21 19-25 16.5M142 75.3c-3.5 3.5-4.5 6.2-24.5 9-25 3.5-41 4-50.5 17"/><path d="M142.5 71.3c-2.2 2.7-6.8 4.8-22 6-19 1.5-40 4.5-51 17"/><path d="M143 64.3c-5.3-3-24-6.5-45 2-24.6 10-47.3 26-54.5 71.5-7 44.5-7.6 61.5-10 81-.8 6.5-5.5 9-10 9"/><path d="M140 67.8c-17-2-29 0-46.5 9-15.5 8-32.5 20.5-38 62s-3.5 65-7.5 80c-3.3 12.3-12 13.5-17 13.5"/><path d="M21 241.8c4.7 1.5 15.6.3 18.5-18 4.5-28.5 5.6-53.7 7-76.5 1-16.5 3-41.5 35-62.5M148 70.8c14-4.5 33.4-5 41 24.5 9.5 37 12.5 138 22 150a20 20 0 0 0 23 6.5"/><path d="M146 75.3c11-3 30.5-4.5 37 21 6.2 24.5-.5 103.5 2.5 125.5s18.5 37.5 37 30"/><path d="M152 81.3c13.3-4 39.4 3.6 41 68 2 80.5 1.5 101 31 108"/><path d="M152 85.3c18.5 1.5 28.4 18.7 30 41.5 2 28.5-18.5 95.5 0 122 14.8 21.2 30.8 22.5 37 20.5"/></g></g><g transform="translate(71 151)"></g><g transform="translate(71 89)"><path d="M26.7 26.3c1-2.5 4.2-7.3 9.9-7.1 5.7.2 8.3 3.4 8.9 5M71.2 24.6c1-2.9 4.2-8.4 9.2-7.7 5 .6 7.5 4.3 8.1 6M25 43c2.7-4 9.5-6.7 15-6.2 6.7.6 4.3 6.6 2.6 7.3-2.2.9-5.2-.9-3.3-3.3 1.4-2 2.8 0 2.4.8M72.6 38.6c1.7-1.7 6.5-5.2 11.4-5 6.1.4 7.8 3.4 6 5.5-2 2.2-4.6 2.5-4.6 0 0-2.4 2-2.5 2.8-1" stroke="#000" stroke-width="3" stroke-linecap="round" stroke-linejoin="round"/></g></g></svg>