<svg xmlns="http://www.w3.org/2000/svg" viewBox="0 0 256 256" fill="none" shape-rendering="auto"><metadata xmlns:rdf="http://www.w3.org/1999/02/22-rdf-syntax-ns#" xmlns:xsi="http://www.w3.org/2001/XMLSchema-instance" xmlns:dc="http://purl.org/dc/elements/1.1/" xmlns:dcterms="http://purl.org/dc/terms/"><rdf:RDF><rdf:Description><dc:title>Croodles - Doodle your face</dc:title><dc:creator>vijay verma</dc:creator><dc:source xsi:type="dcterms:URI">https://www.figma.com/community/file/966199982810283152</dc:source><dcterms:license xsi:type="dcterms:URI">https://creativecommons.org/licenses/by/4.0/</dcterms:license><dc:rights>Remix of „Croodles - Doodle your face” (https://www.figma.com/community/file/966199982810283152) by „vijay verma”, licensed under „CC BY 4.0” (https://creativecommons.org/licenses/by/4.0/)</dc:rights></rdf:Description></rdf:RDF></metadata><mask id="viewboxMask"><rect width="256" height="256" rx="128" ry="128" x="0" y="0" fill="#fff" /></mask><g mask="url(#viewboxMask)"><rect fill="#b6e3f4" width="256" height="256" x="0" y="0" /><path d="M175 107.8c.3.4.5.8.4 1.3 1.9 2.3 3.5 5 4.8 8 1.2-.4 2.5-.7 3.9-.6 1.7.2 3.3 1.1 4.4 3 2 3.5 3.4 8 1.8 14.6a7.9 7.9 0 0 1-2.7 4.6 6 6 0 0 1-2.4 1 54 54 0 0 1-1.6 15 55 55 0 0 1-46 38.4c-24 2.2-47.9-4.1-59.6-27a43 43 0 0 1-5.7-17.5c-1.4 0-2.9-.6-4.1-2a15.5 15.5 0 0 1-3-8.3c-.7-5.7.2-9.9 2-12.4 1-1.3 2.2-2.2 3.6-2.6 1.2-.4 2.6-.3 3.8.2a33.1 33.1 0 0 1 4-9l.3-.7c2.9-4.9 8.8-9.4 16.2-13a89.6 89.6 0 0 1 26.3-7.5c19-2.5 40.4.5 53.6 14.5Z" fill="#ffffff"/><g stroke="#000" stroke-width="3" stroke-linecap="round" stroke-linejoin="round"><path d="M78.7 115c-6.1 8.7-10.8 34.3-.6 51 11.6 22.5 35.3 28.9 59.6 26.6a54.7 54.7 0 0 0 45.7-38A56 56 0 0 0 175 109"/><path d="M181.2 118.4c2.6-1.2 5.6-1.7 7.4 1.5 1.9 3.2 3.2 7.3 1.7 13.6-1 4-3.3 4.9-5.3 4.9M73 124.6c-4.2-2-9.1 2.3-7.8 13.4 1 7.8 4 9.5 6.5 9.2"/></g><g transform="translate(113 126)"><path d="M20.8 8c2.7 8 7.6 25.3 5.8 29.4-2.1 5-5.4-2.3-5.4 3.5-1 2.8-3.8 3.2-5.1-1.6-1.3-4.7-5.2 3.5-6.5 1.6-3.6-1.6-.7-7.1 1.2-8.9" stroke="#000" stroke-width="3" stroke-linecap="round" stroke-linejoin="round"/></g><g transform="translate(62 112)"></g><g transform="translate(98 169)"><g stroke="#000" stroke-width="3" stroke-linecap="round" stroke-linejoin="round"><path d="M11 11.2c3 1.1 9.3 3 24.3 1.7C54 11.2 54.3 9.6 58.7 7"/><path d="M35.7 7.6A36.7 36.7 0 0 0 17 12.7c15.7 12.4 34.8 0 34.8-2.6-2.4-1-2.4-3.3-16-2.5Z"/></g></g><g transform="translate(-2 4)"><g stroke="#000000" stroke-width="3" stroke-linecap="round" stroke-linejoin="round"><path d="M129.8 67c-13.8 3.3-28 1.2-43.5 16M133.5 65.5c17.5-11.7 46.2 4.2 49.9 24.4M133 72.4c9 17 23.9 32.6 50.4 25.1"/><path d="M133 67.6c10.6 13.3 29.7 21.2 47.7 25.5M73 105.5c17.3 3 52.6-9 55.5-29.7M72 102.3C75.2 66 120.8 52.8 130.9 66"/><path d="M129.3 70.3c-9.3 8.5-24.4 17-47.2 22.3M115.5 84c-8.5 9.4-16 15.4-38.7 19.2M135.7 67c6.1-1.1 25.4 0 38.2 17"/></g></g><g transform="translate(69 153)"></g><g transform="translate(72 106)"><path d="M21 41.9c.6-1 2.2-3 4-3.2M25.8 45.2l2.8-5M32.5 41.8c0 1.1-1.2 5.4-1.2 5.4M21.3 32.1c1.2 2.8 5 8.4 10.3 9.2 5.4.7 9.2-1.1 10.4-2.1M80.8 40.3V44M84.4 39.4 86 43M87.8 38.4c.7.7 2.6 2 2.6 3M72.8 35c1.2 1.5 4.2 4.3 6.5 4.3 3 0 8.2-.8 12-4.3M21.1 22c1-1.6 4.6-4.9 11-5.3 6.5-.4 9.1 1.2 9.7 2M73.7 20.7c1.5-2 5.9-6.2 11.5-6.2 2.3.4 7.1 2.1 8.8 6.6" stroke="#000" stroke-width="3" stroke-linecap="round" stroke-linejoin="round"/></g></g></svg>