<svg xmlns="http://www.w3.org/2000/svg" viewBox="0 0 256 256" fill="none" shape-rendering="auto"><metadata xmlns:rdf="http://www.w3.org/1999/02/22-rdf-syntax-ns#" xmlns:xsi="http://www.w3.org/2001/XMLSchema-instance" xmlns:dc="http://purl.org/dc/elements/1.1/" xmlns:dcterms="http://purl.org/dc/terms/"><rdf:RDF><rdf:Description><dc:title>Croodles - Doodle your face</dc:title><dc:creator>vijay verma</dc:creator><dc:source xsi:type="dcterms:URI">https://www.figma.com/community/file/966199982810283152</dc:source><dcterms:license xsi:type="dcterms:URI">https://creativecommons.org/licenses/by/4.0/</dcterms:license><dc:rights>Remix of „Croodles - Doodle your face” (https://www.figma.com/community/file/966199982810283152) by „vijay verma”, licensed under „CC BY 4.0” (https://creativecommons.org/licenses/by/4.0/)</dc:rights></rdf:Description></rdf:RDF></metadata><mask id="viewboxMask"><rect width="256" height="256" rx="128" ry="128" x="0" y="0" fill="#fff" /></mask><g mask="url(#viewboxMask)"><rect fill="#ffdfbf" width="256" height="256" x="0" y="0" /><path d="M73.7 93.5a45.6 45.6 0 0 1 7.2-17c3-5 9-9.5 16.4-13a90.1 90.1 0 0 1 26.4-7.7c19-2.5 40.2.5 53.5 14l.6.4c7.8 7.5 9.5 18.5 9.2 30.3v1.3c1.5.3 3.3 1.3 4.8 3.2 1.8 2.4 2.8 6.3 1.8 12a21.4 21.4 0 0 1-2.9 8.1l-.8 1.5c-.8 1.4-1.6 2.9-2.7 3.8a4 4 0 0 1-3 .9l-.5 6.4c-2.2 37-4.7 59.8-22.1 79.2-16.9 18.7-43.6 13.3-57 0-10.7-10.7-28.5-33-32-83.4-1.9.3-3.7-1-5-3-1.6-2.4-3-6.1-4.1-11.8-1-5.5-.3-9.4 1.5-12a8.2 8.2 0 0 1 6.8-3.4h.5c.3-3.7.8-7 1.4-9.8Z" fill="#ffffff"/><g stroke="#000" stroke-width="3" stroke-linecap="round" stroke-linejoin="round"><path d="M186.4 102.2c2.3 0 8.3 2.7 6.4 13.8-.9 4.9-2 6-3.7 9.2-1.5 2.8-2.7 4.9-5.5 3.6M70.4 103.8c-3.8 0-9 3.2-7 13.8 2.2 11.4 5.6 14.4 7.9 13.7"/><path d="M82.2 74.4C75 84.8 70.4 94 72.7 131c3.2 51.9 21.4 74.5 32.2 85.2 13.1 13 39.3 18 55.7 0 17.3-19.2 19.8-41.8 22-79.2 1.5-24.9 9.4-52.8-5.4-67"/></g><g transform="translate(117 131)"><path d="M15.3 18c-4 .9-7.2 6.8-4 10 4 4 12.3 4.7 13.1 0 .7-3.9-1.3-6-2.7-6.7" stroke="#000" stroke-width="3" stroke-linecap="round" stroke-linejoin="round"/></g><g transform="translate(63 147)"></g><g transform="translate(100 194)"><path d="M17 12a88 88 0 0 0 36.2 0" stroke="#000" stroke-width="3" stroke-linecap="round" stroke-linejoin="round"/></g><g transform="translate(0 -34)"><g stroke="#f24e1e" stroke-width="3" stroke-linecap="round" stroke-linejoin="round"><path d="M115.5 53.2A74 74 0 0 0 96.8 100M122.7 52.8c6.3 3.9 20 17 24.5 38.6"/><path d="M136.8 93.2c-23 2-48.8 11.8-58.8 16.5 0-22.6 19-57 44.7-58.1 25.7-1.3 49.6 19 58.2 41.6-6.8 0-15.3-2.4-44.1 0Z"/><path d="M93.2 103.5c3.5 3.6 11.9 6.6 29 6.6 19 0 48.2-4.2 52.5-6.6 6.7-3.8 6.5-7.4 5.9-10M115.7 52.8c-1.2-3.5-3-10.6-1-11.6 2.7-1.2 9 2.4 8.7 10"/></g></g><g transform="translate(72 160)"></g><g transform="translate(72 89)"><path d="M21 41.9c.6-1 2.2-3 4-3.2M25.8 45.2l2.8-5M32.5 41.8c0 1.1-1.2 5.4-1.2 5.4M21.3 32.1c1.2 2.8 5 8.4 10.3 9.2 5.4.7 9.2-1.1 10.4-2.1M80.8 40.3V44M84.4 39.4 86 43M87.8 38.4c.7.7 2.6 2 2.6 3M72.8 35c1.2 1.5 4.2 4.3 6.5 4.3 3 0 8.2-.8 12-4.3M21.1 22c1-1.6 4.6-4.9 11-5.3 6.5-.4 9.1 1.2 9.7 2M73.7 20.7c1.5-2 5.9-6.2 11.5-6.2 2.3.4 7.1 2.1 8.8 6.6" stroke="#000" stroke-width="3" stroke-linecap="round" stroke-linejoin="round"/></g></g></svg>