<svg xmlns="http://www.w3.org/2000/svg" viewBox="0 0 256 256" fill="none" shape-rendering="auto"><metadata xmlns:rdf="http://www.w3.org/1999/02/22-rdf-syntax-ns#" xmlns:xsi="http://www.w3.org/2001/XMLSchema-instance" xmlns:dc="http://purl.org/dc/elements/1.1/" xmlns:dcterms="http://purl.org/dc/terms/"><rdf:RDF><rdf:Description><dc:title>Croodles - Doodle your face</dc:title><dc:creator>vijay verma</dc:creator><dc:source xsi:type="dcterms:URI">https://www.figma.com/community/file/966199982810283152</dc:source><dcterms:license xsi:type="dcterms:URI">https://creativecommons.org/licenses/by/4.0/</dcterms:license><dc:rights>Remix of „Croodles - Doodle your face” (https://www.figma.com/community/file/966199982810283152) by „vijay verma”, licensed under „CC BY 4.0” (https://creativecommons.org/licenses/by/4.0/)</dc:rights></rdf:Description></rdf:RDF></metadata><mask id="viewboxMask"><rect width="256" height="256" rx="128" ry="128" x="0" y="0" fill="#fff" /></mask><g mask="url(#viewboxMask)"><rect fill="#ffdfbf" width="256" height="256" x="0" y="0" /><path d="m176 91.2.3.4c.3.1.7.4.9.7a81 81 0 0 1 8 27.7c4.7-1.6 11.8 2 11.8 10 0 4-.3 6.7-1 9-.6 2.3-1.6 4-3 5.8a9.4 9.4 0 0 1-7.7 3.3 71.7 71.7 0 0 1-26.1 49.2 51.6 51.6 0 0 1-37.2 11.4 43.6 43.6 0 0 1-30.2-18 114.1 114.1 0 0 1-19.5-42.3c-1.5.2-3.8 0-6-1.2-3-1.5-5.7-4.7-6.8-10.6-1-5.3-.4-10 1.7-13a8 8 0 0 1 4.3-3.1c1.5-.5 3.2-.5 5 0A42.2 42.2 0 0 1 96 84.3a90.3 90.3 0 0 1 26.3-7.5c19.1-2.5 40.5.5 53.7 14.4Z" fill="#ffffff"/><g stroke="#000" stroke-width="3" stroke-linecap="round" stroke-linejoin="round"><path d="M81.3 95c-17 17-15 61 11 96.5 15 20.5 42.2 25.1 66.7 6.5 34.5-26.2 30.5-83 18-106"/><path d="M186.4 121.4c3.6-1.9 10.7.8 10.7 8.7 0 7.8-1.1 10.8-3.7 14.2-2 2.6-5.6 3.2-8 2.7M69.7 121.9c-7.7-2.4-12.2 4-10.2 14.6 2.1 11.4 10.2 11.3 12.5 10.8"/></g><g transform="translate(112 123)"><path d="M2 2.7c3.5 0 7.7 5.7 8.1 14.8.7 14.7-4.2 19.4 0 27 2.7 5 17.8 4.7 21.9-3.6 3.2-6.5-3-12-6.6-20.7-3.5-8.3-5.7-13.4-2-18.2" stroke="#000" stroke-width="3" stroke-linecap="round" stroke-linejoin="round"/></g><g transform="translate(60 128)"><path d="m64.9 83.7-.9 5.8M67.2 83.5c.6 3 .2 4.5 1.3 6.5M71.5 89.5s-1-2.9-1-6M73.8 83c.6 4 2 6 2 6" stroke="#000" stroke-width="3" stroke-linecap="round" stroke-linejoin="round"/></g><g transform="translate(95 180)"><g stroke="#000" stroke-width="3" stroke-linecap="round" stroke-linejoin="round"><path d="M22.2 21.5c-.5.5-3-7.1-4.1-11l7.4 1.2-3.3 9.8ZM49.4 20.4c-.7.3-3-6-4.3-10l6-2c-1 3.1-.6 11.6-1.7 12Z"/><path d="M13 4.7c3 6.2 12.4 7.7 24 6.4C47.4 10 53.4 6.7 56.4 3"/></g></g><g transform="translate(-1 -13)"><g stroke="#000000" stroke-width="3" stroke-linecap="round" stroke-linejoin="round"><path d="M129.8 67c-13.8 3.3-28 1.2-43.5 16M133.5 65.5c17.5-11.7 46.2 4.2 49.9 24.4M133 72.4c9 17 23.9 32.6 50.4 25.1"/><path d="M133 67.6c10.6 13.3 29.7 21.2 47.7 25.5M73 105.5c17.3 3 52.6-9 55.5-29.7M72 102.3C75.2 66 120.8 52.8 130.9 66"/><path d="M129.3 70.3c-9.3 8.5-24.4 17-47.2 22.3M115.5 84c-8.5 9.4-16 15.4-38.7 19.2M135.7 67c6.1-1.1 25.4 0 38.2 17"/></g></g><g transform="translate(67 152)"></g><g transform="translate(71 102)"><g stroke="#000" stroke-width="3" stroke-linecap="round" stroke-linejoin="round"><path d="M23.2 17.6c1.6.8 6 1.7 11.2 1.3 4.5-.4 6.5-1.5 7.8-2.9M75.2 15c2.1 1.9 5.9 2.3 8.3 2.3 2.3.1 5 0 7.1-.4M4 18.5 17.7 26M48.2 29.8A31.5 31.5 0 0 1 68.7 28M96.9 25.6c2.5-1.3 10.6-7.7 13.1-9.6M18.1 26.6c-.3 3.7-1.7 15.6 0 17.6 2.6 3 27.8-1 29.5-1.5 1.6-.6 2-8.8-.5-15.4-2.2-5.5-20.8-3.1-28.4-1.8"/><path d="m19.5 31.9 2.8-5.4c-.8 3.3-3 11-2.8 12 .3 1.2 5.7-12.6 6.3-12.6.6.1-4.5 16-4.5 17s6-17 6.9-17c.9 0-4.2 15.6-3.6 16.5.6 1 5.4-16 6.2-16.9.7-.9-4.3 18.2-3.4 18.1.8 0 6.1-21 6.9-19 .7 2-4.9 21.2-3 19.5 2-1.6 5.4-21 6.8-19.5 1.4 1.5-3.6 20-2.4 19.5 1.3-.5 4.6-17.6 5.2-17.6.6 0-1 17.1-.5 17.1s3.3-14 3.7-15.1c.3-1.2 1-.5 1 3.4-.1 3-1.3 9-1.6 11l3-7.6M70.8 33l2.8-7c-.8 3.3-2.3 10-2 10.9.2 1.2 5-11.5 5.5-11.4.6 0-3.5 13.1-3.5 14 0 1 5-14 5.9-14 .9 0-3.6 14.8-3 15.7.6.9 4.8-15.3 5.6-16.2.7-.9-4.3 18.2-3.4 18.1.8 0 6.1-21 6.9-19 .7 2-5.1 20.7-3.2 19 2-1.6 5.6-20.5 7-19 1.4 1.5-3.6 20-2.4 19.6C88.3 43 91.6 26 92.2 26c.6 0-1 17-.5 17s2.7-12.7 3-13.9c.4-1.1 1.3-.5 1.2 3.3 0 3.1-.8 7.9-1.1 9.9l3-7.6"/><path d="M70.5 24.8c6-2.7 22.2-1 25.2 0 3.8 1.1 3.6 14.7 3.3 18-.4 3.4-22.1.2-26.8 0-3.7-.1-3-12.7-2.1-17.6"/></g></g></g></svg>