<svg xmlns="http://www.w3.org/2000/svg" viewBox="0 0 256 256" fill="none" shape-rendering="auto"><metadata xmlns:rdf="http://www.w3.org/1999/02/22-rdf-syntax-ns#" xmlns:xsi="http://www.w3.org/2001/XMLSchema-instance" xmlns:dc="http://purl.org/dc/elements/1.1/" xmlns:dcterms="http://purl.org/dc/terms/"><rdf:RDF><rdf:Description><dc:title>Croodles - Doodle your face</dc:title><dc:creator>vijay verma</dc:creator><dc:source xsi:type="dcterms:URI">https://www.figma.com/community/file/966199982810283152</dc:source><dcterms:license xsi:type="dcterms:URI">https://creativecommons.org/licenses/by/4.0/</dcterms:license><dc:rights>Remix of „Croodles - Doodle your face” (https://www.figma.com/community/file/966199982810283152) by „vijay verma”, licensed under „CC BY 4.0” (https://creativecommons.org/licenses/by/4.0/)</dc:rights></rdf:Description></rdf:RDF></metadata><mask id="viewboxMask"><rect width="256" height="256" rx="128" ry="128" x="0" y="0" fill="#fff" /></mask><g mask="url(#viewboxMask)"><rect fill="#c0aede" width="256" height="256" x="0" y="0" /><path d="M122.4 75.3c18.8-2.5 39.9.4 53.1 13.9l.6.2c3 2 4.6 4.2 6 7.5 1 2.7 1.8 6 2.8 10.5 1.3.1 3.5.5 5.4 2.1 2.2 2 3.3 5.5 2.3 11.2-.8 4.9-1.6 7.7-3.5 11-.7 1.5-1.8 3-3 4a4.8 4.8 0 0 1-5.2.5 249.6 249.6 0 0 1-18.5 46.7 93 93 0 0 1-15.2 20.2 27.8 27.8 0 0 1-19.2 8.4 16 16 0 0 1-8.5-3.3 58 58 0 0 1-9.4-8.3 194.4 194.4 0 0 1-36.2-59.6c-1.6.5-3.8.3-5.8-1.6-2-1.8-3.6-5.2-4.7-10.9-2-10.9 4.2-17.2 9.2-17.2h.1c1-4.2 1.9-7 2.8-9 1.2-2.7 2.5-4.1 4-5.8a72.8 72.8 0 0 0 1.3-1.5C83.9 90 89.4 86.1 96 83a90 90 0 0 1 26.3-7.6Z" fill="#ffffff"/><g stroke="#000" stroke-width="3" stroke-linecap="round" stroke-linejoin="round"><path d="M185.5 108.6c2.2 0 9 .8 7 11.9-.8 4.9-1.6 7.5-3.4 10.8-1.5 2.9-3.7 5.2-6.4 3.9M71.3 111.8c-3.8 0-10 5.4-8 16 2.3 11.3 6.6 12.2 8.8 11.5"/><path d="M80.5 95c-4 4.9-5.7 4.9-9.7 25.7-4 20.8 38.7 91.3 57.2 91.3 14 0 24.2-12.4 33.8-28.5 6.7-11.2 26-61.3 23.4-73.3-2.6-12-3.5-16.6-9-20.2"/></g><g transform="translate(116 119)"><path d="M13 43.8c3.7 0 8.5-1.5 9.2-6 .6-3.7-5.6-3.1-7.3-7.4A70.4 70.4 0 0 1 15 7" stroke="#000" stroke-width="3" stroke-linecap="round" stroke-linejoin="round"/></g><g transform="translate(60 131)"></g><g transform="translate(97 178)"><g stroke="#000" stroke-width="3" stroke-linecap="round" stroke-linejoin="round"><path d="M54.3 13.7c4.9-9.4-1.4-10-6.6-7.4a48.9 48.9 0 0 1-23.5 2.4C17.8 6.3 14.4 2 14 13c-.4 11 36.2 8.6 40.3.8Z"/><path d="M15.2 11.9c8 2.7 27 5.8 39.2-4M24 11l-1 5.6M30.8 12.4l-.5 6.2M37.4 11.7l1 6.4M45.3 9.8l1.4 7"/></g></g><g transform="translate(-1 -14)"><g stroke="#f24e1e" stroke-width="3" stroke-linecap="round" stroke-linejoin="round"><path d="M129.8 67c-13.8 3.3-28 1.2-43.5 16M133.5 65.5c17.5-11.7 46.2 4.2 49.9 24.4M133 72.4c9 17 23.9 32.6 50.4 25.1"/><path d="M133 67.6c10.6 13.3 29.7 21.2 47.7 25.5M73 105.5c17.3 3 52.6-9 55.5-29.7M72 102.3C75.2 66 120.8 52.8 130.9 66"/><path d="M129.3 70.3c-9.3 8.5-24.4 17-47.2 22.3M115.5 84c-8.5 9.4-16 15.4-38.7 19.2M135.7 67c6.1-1.1 25.4 0 38.2 17"/></g></g><g transform="translate(72 148)"><g stroke="#000" stroke-width="3" stroke-linecap="round" stroke-linejoin="round"><path d="M61 24.9c-14.7 2.1-46 8-58 11.5M126.8 22.4c-14.7 2.1-46.5 1-58.5 1.7"/><path d="M60.3 25.3c-14.7 2-38 11.6-51.5 13.1M123.5 26.2c-14.8 2.1-40.6-1.6-53.9-1.6M61 24.2C46.4 26.3 15.9 30 3.6 31.7M128 17c-14.7 2.1-47.5 4.4-59.8 6.2"/></g></g><g transform="translate(72 92)"><g stroke="#000" stroke-width="3" stroke-linecap="round" stroke-linejoin="round"><path d="M20.4 39.8c2.2-3.1 9-8.4 19-4"/><path d="M29 35.3c-1 .5-2.8 2.1-1.6 4.5 1.5 3 6.5.5 6-1.5-.4-1.6-2.1-2-3-2M17 24.6C21.8 23 33.2 21 40 27M71.4 24.6c4.8-1.7 16.2-3.6 23 2.3M68 28c6.4-.8 24.3 1.6 27 3.2 3 1.8 3.5 15.2 1.2 21.6-1.2 3.2-13.3 6.7-23.8 0-7.5-4.7-5.9-18.8-5-23.7"/><path d="M70.6 31c-.7 1.9-1.8 8.5-2.5 10.8l5-10.2c-.7 3.2-3.5 14.2-3.3 15.2.3 1.2 5.9-15.3 6.5-15.2.6 0-4.4 16.9-4.4 17.9s5.8-17.2 6.7-17.2c.9 0-4.4 17.9-3.8 18.8.6.9 5.2-17.3 6-18.2C81.4 32 76.1 53 77 53c.8 0 6.1-21 6.9-19 .7 2-5.1 22-3.2 20.3 2-1.6 5.6-21.8 7-20.3 1.5 1.5-4.4 20.8-3.2 20.3C85.8 53.8 90 35 90.6 35c.6 0-2.4 20.8-1.8 19.4l5-19.4c.3-1.2 0 3 0 6.9-.1 3-2.2 10.5-2.5 12.5l4.4-14.6c0 2.3 0 7.6-.3 10.1-.3 2.6-.8 3.7-1 4M6 3a253.7 253.7 0 0 0 58.6 26c3 .8 28 4.5 32 2.3 3.3-1.7 11.2-14 13-16"/></g></g></g></svg>