<svg xmlns="http://www.w3.org/2000/svg" viewBox="0 0 256 256" fill="none" shape-rendering="auto"><metadata xmlns:rdf="http://www.w3.org/1999/02/22-rdf-syntax-ns#" xmlns:xsi="http://www.w3.org/2001/XMLSchema-instance" xmlns:dc="http://purl.org/dc/elements/1.1/" xmlns:dcterms="http://purl.org/dc/terms/"><rdf:RDF><rdf:Description><dc:title>Croodles - Doodle your face</dc:title><dc:creator>vijay verma</dc:creator><dc:source xsi:type="dcterms:URI">https://www.figma.com/community/file/966199982810283152</dc:source><dcterms:license xsi:type="dcterms:URI">https://creativecommons.org/licenses/by/4.0/</dcterms:license><dc:rights>Remix of „Croodles - Doodle your face” (https://www.figma.com/community/file/966199982810283152) by „vijay verma”, licensed under „CC BY 4.0” (https://creativecommons.org/licenses/by/4.0/)</dc:rights></rdf:Description></rdf:RDF></metadata><mask id="viewboxMask"><rect width="256" height="256" rx="128" ry="128" x="0" y="0" fill="#fff" /></mask><g mask="url(#viewboxMask)"><rect fill="#d1d4f9" width="256" height="256" x="0" y="0" /><path d="M122.4 75.3c18.8-2.5 39.9.4 53.1 13.9l.6.2c3 2 4.6 4.2 6 7.5 1 2.7 1.8 6 2.8 10.5 1.3.1 3.5.5 5.4 2.1 2.2 2 3.3 5.5 2.3 11.2-.8 4.9-1.6 7.7-3.5 11-.7 1.5-1.8 3-3 4a4.8 4.8 0 0 1-5.2.5 249.6 249.6 0 0 1-18.5 46.7 93 93 0 0 1-15.2 20.2 27.8 27.8 0 0 1-19.2 8.4 16 16 0 0 1-8.5-3.3 58 58 0 0 1-9.4-8.3 194.4 194.4 0 0 1-36.2-59.6c-1.6.5-3.8.3-5.8-1.6-2-1.8-3.6-5.2-4.7-10.9-2-10.9 4.2-17.2 9.2-17.2h.1c1-4.2 1.9-7 2.8-9 1.2-2.7 2.5-4.1 4-5.8a72.8 72.8 0 0 0 1.3-1.5C83.9 90 89.4 86.1 96 83a90 90 0 0 1 26.3-7.6Z" fill="#ffffff"/><g stroke="#000" stroke-width="3" stroke-linecap="round" stroke-linejoin="round"><path d="M185.5 108.6c2.2 0 9 .8 7 11.9-.8 4.9-1.6 7.5-3.4 10.8-1.5 2.9-3.7 5.2-6.4 3.9M71.3 111.8c-3.8 0-10 5.4-8 16 2.3 11.3 6.6 12.2 8.8 11.5"/><path d="M80.5 95c-4 4.9-5.7 4.9-9.7 25.7-4 20.8 38.7 91.3 57.2 91.3 14 0 24.2-12.4 33.8-28.5 6.7-11.2 26-61.3 23.4-73.3-2.6-12-3.5-16.6-9-20.2"/></g><g transform="translate(116 119)"><path d="M21.7 10c5 4 12 23 6 29S19 34.3 14 34.3c-5.1 0-9 6-8.5-1 .4-5.6 4-5.5 4.7-5.8" stroke="#000" stroke-width="3" stroke-linecap="round" stroke-linejoin="round"/></g><g transform="translate(60 131)"></g><g transform="translate(97 178)"><g stroke="#000" stroke-width="3" stroke-linecap="round" stroke-linejoin="round"><path d="M22.2 21.5c-.5.5-3-7.1-4.1-11l7.4 1.2-3.3 9.8ZM49.4 20.4c-.7.3-3-6-4.3-10l6-2c-1 3.1-.6 11.6-1.7 12Z"/><path d="M13 4.7c3 6.2 12.4 7.7 24 6.4C47.4 10 53.4 6.7 56.4 3"/></g></g><g transform="translate(-1 -14)"><path d="M86.3 106.7c-5.6-4.5-4.8-3.7-10-5.3M89.5 94.4c-2.8-1.2-4.7-3.4-6.7-5.6M190 108.5s-6.2-.3-12 2M181.4 93.6s-5.3 3.1-9 8.2M171 82.6s-4.4 4.2-6.8 10M158.1 75.5s-3.5 5-4.7 11.2M142.8 73.2s-2.6 5.5-2.8 11.8M124.4 72s-1.3 6 0 12.1M107.5 73.9s2.4 5.6 7 9.8M95 80.2s3 4.3 7.4 9" stroke="#000000" stroke-width="3" stroke-linecap="round" stroke-linejoin="round"/></g><g transform="translate(72 148)"></g><g transform="translate(72 92)"><path d="M21 41.9c.6-1 2.2-3 4-3.2M25.8 45.2l2.8-5M32.5 41.8c0 1.1-1.2 5.4-1.2 5.4M21.3 32.1c1.2 2.8 5 8.4 10.3 9.2 5.4.7 9.2-1.1 10.4-2.1M80.8 40.3V44M84.4 39.4 86 43M87.8 38.4c.7.7 2.6 2 2.6 3M72.8 35c1.2 1.5 4.2 4.3 6.5 4.3 3 0 8.2-.8 12-4.3M21.1 22c1-1.6 4.6-4.9 11-5.3 6.5-.4 9.1 1.2 9.7 2M73.7 20.7c1.5-2 5.9-6.2 11.5-6.2 2.3.4 7.1 2.1 8.8 6.6" stroke="#000" stroke-width="3" stroke-linecap="round" stroke-linejoin="round"/></g></g></svg>