<svg xmlns="http://www.w3.org/2000/svg" viewBox="0 0 256 256" fill="none" shape-rendering="auto"><metadata xmlns:rdf="http://www.w3.org/1999/02/22-rdf-syntax-ns#" xmlns:xsi="http://www.w3.org/2001/XMLSchema-instance" xmlns:dc="http://purl.org/dc/elements/1.1/" xmlns:dcterms="http://purl.org/dc/terms/"><rdf:RDF><rdf:Description><dc:title>Croodles - Doodle your face</dc:title><dc:creator>vijay verma</dc:creator><dc:source xsi:type="dcterms:URI">https://www.figma.com/community/file/966199982810283152</dc:source><dcterms:license xsi:type="dcterms:URI">https://creativecommons.org/licenses/by/4.0/</dcterms:license><dc:rights>Remix of „Croodles - Doodle your face” (https://www.figma.com/community/file/966199982810283152) by „vijay verma”, licensed under „CC BY 4.0” (https://creativecommons.org/licenses/by/4.0/)</dc:rights></rdf:Description></rdf:RDF></metadata><mask id="viewboxMask"><rect width="256" height="256" rx="128" ry="128" x="0" y="0" fill="#fff" /></mask><g mask="url(#viewboxMask)"><rect fill="#d1d4f9" width="256" height="256" x="0" y="0" /><path d="M73.3 106.5c2-5.5 4-9.8 5.4-12.2-.1-.4 0-.8.1-1.1 3-4.9 9-9.3 16.4-12.9a90.7 90.7 0 0 1 26.3-7.5c19.2-2.5 40.7.5 53.9 14.4.2.3.4.6.4 1 1 1.1 2.2 3.2 3.6 6a109 109 0 0 1 4.4 10.2c1.4-.5 3-.7 4.6-.5a7 7 0 0 1 5.4 3.3c2 3.5 2.9 10 1.6 15.8a6.7 6.7 0 0 1-2.6 4.2 6 6 0 0 1-2.3 1c.5 2.8 1 5.6 1.3 8.5 2.8 23.3-1.3 49.6-26 62.6-23.6 12.4-47 16-65.6 12.3-18.7-3.8-32.6-15-36.7-32.5-3.2-13.5-1.3-31 2.2-46.7-1.5-.3-3-1.4-3.9-3-1.3-2.1-2-5.2-1.7-9.2.5-6.2 2.1-10.6 4.8-12.8a7 7 0 0 1 4.6-1.8 9 9 0 0 1 3.8.9Z" fill="#ffffff"/><g stroke="#000" stroke-width="3" stroke-linecap="round" stroke-linejoin="round"><path d="M79 93.7c-6 10-22.2 57.6-15.5 86.4 8.1 34.4 54.6 44.9 102.1 19.7C214.3 174 182.2 95.5 175.3 88"/><path d="M184.3 105.4c2.6-1.1 7.4-1.3 9.3 2 1.8 3.2 2.7 9.3 1.4 15.1-.7 3.3-3 4.3-5 4.3M72.5 107.8c-5.9-3.5-11.4-.2-12.4 12.2-.7 7.9 2.9 11.4 5.4 11"/></g><g transform="translate(116 120)"><path d="M2 2.7c3.5 0 7.7 5.7 8.1 14.8.7 14.7-4.2 19.4 0 27 2.7 5 17.8 4.7 21.9-3.6 3.2-6.5-3-12-6.6-20.7-3.5-8.3-5.7-13.4-2-18.2" stroke="#000" stroke-width="3" stroke-linecap="round" stroke-linejoin="round"/></g><g transform="translate(57 132)"></g><g transform="translate(86 184)"><g stroke="#000" stroke-width="3" stroke-linecap="round" stroke-linejoin="round"><path d="M16 6.6c5.3 2.5 13.5 8 22.7 7.7 11-.3 14.6-6.1 16-9.3"/><path d="M34.3 6.3c-3-1.9-8.6 1.8-10 4.2 1.6 5.5 7.4 9.2 14 9.2 7.3 0 11.3-6.3 12-8.5h0c-.7-1.2-1.8-3.3-4.8-4.9-3.7-2-6.1 6-6.8 6-.7 0-.6-3.6-4.4-6Z"/></g></g><g transform="translate(-2 -17)"><g stroke="#000000" stroke-linecap="round" stroke-linejoin="round"><path d="M80.8 109 50 83.4C56 73 85.7 50 103.4 50c22 0 18.7 14.3 27 14.3 12.6 0 11.1-3 19.6-12.2 6.7-7.4 43.3 6.8 66 17.3l-39.2 34.3c-6.3-3.4-30.4-8.2-47.9-8.2-17 0-40.4 8.2-48.1 13.4Z" stroke-width="3"/><path d="M159 63c-1 8.5-3 29.7-3 33.2 0 3.9-5-26.5-5.8-28.4l-1.5 27-3.9-24.5-2 24.4-4.7-24-.6 21-6.5-21.4-2.4 21.4-4.5-21.4-1.7 21.4-5.8-23.2L119 93l-14.2-31.4 8.4 33.1L109 87 96 63l8.7 34.3L89.5 66l9.1 33.6-17.2-29.2 8.1 27-14.6-22L88 102.7 73.2 80.5l10.5 25-17-25 6.5 20-9.8-14.7m98.4 10.4 5.4-31.3v33.8l8.2-30.2-1.7 26.2 7.8-24-6.1 29.8 11.1-28.2-1.5 19.4 7.8-17.5v9.3l5.5-6" stroke-width="6"/><path d="M57.2 87.5c10.1-9.7 33.3-29.2 45.2-29.7 11.9-.6 5 5.3 19 12l22.4-2.2c7.6-2.9 10-11 18.3-8 8.4 3 26.1 11.7 43 17.3" stroke-width="3"/></g></g><g transform="translate(71 151)"></g><g transform="translate(71 89)"><g stroke="#000" stroke-linecap="round" stroke-linejoin="round"><path d="M34 27.7c7-2.6 13.2 5.2 13.2 10.9 0 6.8-5.3 12.5-10.3 12.5-5 0-9.9-5.7-9.9-12.5 0-5.7 4-9.8 7.8-11.3M77.4 23.2c6.6-2.6 11 5.4 11 11 0 6.8-3.8 12.6-8.5 12.6-4.6 0-9-4.7-9-12.2C71 27 74.5 24.4 78 23" stroke-width="3"/><path d="M40.1 40.5s0 0 0 0M82 38.2s0 0 0 0" stroke-width="6"/><path d="M28.2 19.3c2.8-3.2 10-7.9 17-1.6M66.2 15.1c4.3-4.2 14.4-10.4 20-1.8" stroke-width="3"/></g></g></g></svg>