<svg xmlns="http://www.w3.org/2000/svg" viewBox="0 0 256 256" fill="none" shape-rendering="auto"><metadata xmlns:rdf="http://www.w3.org/1999/02/22-rdf-syntax-ns#" xmlns:xsi="http://www.w3.org/2001/XMLSchema-instance" xmlns:dc="http://purl.org/dc/elements/1.1/" xmlns:dcterms="http://purl.org/dc/terms/"><rdf:RDF><rdf:Description><dc:title>Croodles - Doodle your face</dc:title><dc:creator>vijay verma</dc:creator><dc:source xsi:type="dcterms:URI">https://www.figma.com/community/file/966199982810283152</dc:source><dcterms:license xsi:type="dcterms:URI">https://creativecommons.org/licenses/by/4.0/</dcterms:license><dc:rights>Remix of „Croodles - Doodle your face” (https://www.figma.com/community/file/966199982810283152) by „vijay verma”, licensed under „CC BY 4.0” (https://creativecommons.org/licenses/by/4.0/)</dc:rights></rdf:Description></rdf:RDF></metadata><mask id="viewboxMask"><rect width="256" height="256" rx="128" ry="128" x="0" y="0" fill="#fff" /></mask><g mask="url(#viewboxMask)"><rect fill="#b6e3f4" width="256" height="256" x="0" y="0" /><path d="M175 107.8c.3.4.5.8.4 1.3 1.9 2.3 3.5 5 4.8 8 1.2-.4 2.5-.7 3.9-.6 1.7.2 3.3 1.1 4.4 3 2 3.5 3.4 8 1.8 14.6a7.9 7.9 0 0 1-2.7 4.6 6 6 0 0 1-2.4 1 54 54 0 0 1-1.6 15 55 55 0 0 1-46 38.4c-24 2.2-47.9-4.1-59.6-27a43 43 0 0 1-5.7-17.5c-1.4 0-2.9-.6-4.1-2a15.5 15.5 0 0 1-3-8.3c-.7-5.7.2-9.9 2-12.4 1-1.3 2.2-2.2 3.6-2.6 1.2-.4 2.6-.3 3.8.2a33.1 33.1 0 0 1 4-9l.3-.7c2.9-4.9 8.8-9.4 16.2-13a89.6 89.6 0 0 1 26.3-7.5c19-2.5 40.4.5 53.6 14.5Z" fill="#ffffff"/><g stroke="#000" stroke-width="3" stroke-linecap="round" stroke-linejoin="round"><path d="M78.7 115c-6.1 8.7-10.8 34.3-.6 51 11.6 22.5 35.3 28.9 59.6 26.6a54.7 54.7 0 0 0 45.7-38A56 56 0 0 0 175 109"/><path d="M181.2 118.4c2.6-1.2 5.6-1.7 7.4 1.5 1.9 3.2 3.2 7.3 1.7 13.6-1 4-3.3 4.9-5.3 4.9M73 124.6c-4.2-2-9.1 2.3-7.8 13.4 1 7.8 4 9.5 6.5 9.2"/></g><g transform="translate(113 126)"><path d="M13 43.8c3.7 0 8.5-1.5 9.2-6 .6-3.7-5.6-3.1-7.3-7.4A70.4 70.4 0 0 1 15 7" stroke="#000" stroke-width="3" stroke-linecap="round" stroke-linejoin="round"/></g><g transform="translate(62 112)"></g><g transform="translate(98 169)"><path d="M13.6 13.8c4.7 4 13.5 6.5 22.5 5.4A25 25 0 0 0 54.9 8.5M10 16.5c1.6-1 4.8-3.7 5-6.6M53.1 6c1 1.6 3.8 4.8 6.6 5" stroke="#000" stroke-width="3" stroke-linecap="round" stroke-linejoin="round"/></g><g transform="translate(-2 4)"><g stroke="#f24e1e" stroke-width="3" stroke-linecap="round" stroke-linejoin="round"><path d="M115.5 53.2A74 74 0 0 0 96.8 100M122.7 52.8c6.3 3.9 20 17 24.5 38.6"/><path d="M136.8 93.2c-23 2-48.8 11.8-58.8 16.5 0-22.6 19-57 44.7-58.1 25.7-1.3 49.6 19 58.2 41.6-6.8 0-15.3-2.4-44.1 0Z"/><path d="M93.2 103.5c3.5 3.6 11.9 6.6 29 6.6 19 0 48.2-4.2 52.5-6.6 6.7-3.8 6.5-7.4 5.9-10M115.7 52.8c-1.2-3.5-3-10.6-1-11.6 2.7-1.2 9 2.4 8.7 10"/></g></g><g transform="translate(69 153)"></g><g transform="translate(72 106)"><g stroke="#000" stroke-width="3" stroke-linecap="round" stroke-linejoin="round"><path d="M34.8 27.8c3.3.6 11-.1 14.7-7.9M65.2 15c.5 2.7 2.7 8.5 7.4 10.8 4.6 2.3 8.8 2.3 10.3 2M21.2 40.5a134 134 0 0 1 27.1-5M21 42.7c6.8-1.3 20.5-4.5 25.2-5.2M67.3 34.8c7.1-1.3 22.3 2.4 26.3 4.1"/><path d="M66.7 35.2c7.1-1.2 20.6 3.7 24.6 5.5"/><path d="M66.5 36.1c7-1.3 21.6 4.9 25.6 6.7"/><path d="M66.5 37.5c7-1.3 21.6 5 25.6 6.9M25 41.3c6.5-2.3 20.5-6.6 24-5.2M24 45c6.6-2.3 20.3-6.2 24-7"/></g></g></g></svg>