<svg xmlns="http://www.w3.org/2000/svg" viewBox="0 0 480 480" fill="none" shape-rendering="auto"><metadata xmlns:rdf="http://www.w3.org/1999/02/22-rdf-syntax-ns#" xmlns:xsi="http://www.w3.org/2001/XMLSchema-instance" xmlns:dc="http://purl.org/dc/elements/1.1/" xmlns:dcterms="http://purl.org/dc/terms/"><rdf:RDF><rdf:Description><dc:title>Custom Avatar</dc:title><dc:creator>Ashley Seo</dc:creator><dc:source xsi:type="dcterms:URI">https://www.figma.com/community/file/881358461963645496</dc:source><dcterms:license xsi:type="dcterms:URI">https://creativecommons.org/licenses/by/4.0/</dcterms:license><dc:rights>Remix of „Custom Avatar” (https://www.figma.com/community/file/881358461963645496) by „Ashley Seo”, licensed under „CC BY 4.0” (https://creativecommons.org/licenses/by/4.0/)</dc:rights></rdf:Description></rdf:RDF></metadata><mask id="viewboxMask"><rect width="480" height="480" rx="240" ry="240" x="0" y="0" fill="#fff" /></mask><g mask="url(#viewboxMask)"><rect fill="#ffdfbf" width="480" height="480" x="0" y="0" /><g transform="matrix(.85775 0 0 .85427 52 47)"><path d="M264 38.6s131.4 20.6 121.4 208.1c0 .7 15.2 10.9 16.4 12a77.1 77.1 0 0 1 23.4 36.3c13.9 51.3-35.7 104.2-75.8 118.2a155 155 0 0 1-46.7 8.3c-103.1 3-239.7-62.7-246.7-191a202.7 202.7 0 0 1 15.1-83.9c0 .1 57.4-142.5 192.9-108Z" fill="#efcc9f"/><path d="M388.7 248.7a57 57 0 0 0-3.2 10.5 40 40 0 0 0 8.5 30.4 42.3 42.3 0 0 0 33 15.7c-3.2-31.7-29-50.7-38.3-56.6ZM203.5 332c24.4-5.2 39.6-31 33.9-57.5-5.7-26.5-30.2-43.7-54.6-38.5-24.4 5.3-39.5 31-33.8 57.6 5.7 26.5 30.1 43.7 54.5 38.5Z" fill="#DC2400" style="mix-blend-mode:multiply" opacity=".1"/><path opacity=".1" d="M323 257.9s20.9-19.9 37-1.2Z" fill="#000"/><path d="M128.7 356.9C59.3 391.7-3.7 304.4 16.5 255.3c12.9-31.4 50.4-33.8 72.1-5.2a185 185 0 0 1 29.1 59.1" fill="#efcc9f"/><path opacity=".1" d="M71.5 279c9 9 16.1 22.5 25 30-1.7-12.5-4.3-26-10.4-37.3-6.2-11.6-17.5-21-29-20.3-14.2 1-25.9 17.6-27.4 32.6 1-9 19-15 25.9-14.2 10.8 20.4 15 60.6 15 60.6 9-22.7 5.4-40.7 1-51.5Z" fill="#000"/></g><g transform="matrix(.85472 0 0 .855 19 -17)"><path d="M311.4 362.3C339 346 362.6 345 379.3 344c33.3-2 61.1 8.8 68.5 42.7 6.8 31.2-16.9 49.4-27.8 49-11-.3-13.3-12.2-39.3-12.8-26-.6-63.4 42.9-85.5 26.6-22.2-16.4-18.4-66.6 16.2-87Z" fill="#873C41"/><path d="M433.3 430.2a22.8 22.8 0 0 1-13.1 5.3c-4.3-.1-7.3-2-10.9-4.4-5.5-3.6-12.6-8.1-28.5-8.5-11-.2-24.1 7.4-37.2 15.1-17.8 10.4-35.6 20.9-48.4 11.5-11.7-8.6-16.1-26.4-12.8-44.4 20-6 42.3-5.6 62.8-3.3 29.5 3.3 59.2 10 85.4 26.8a84 84 0 0 1 2.7 1.9Z" fill="#EE7E8B"/><path d="M333.4 368.5a46.8 46.8 0 0 1-37.9 7.5c4.3-5.3 9.6-10 15.9-13.7a136.3 136.3 0 0 1 68-18.4c21.6-1.4 40.8 2.7 53.8 14.9l-.6.7a29 29 0 0 1-32.3 7.3c-1.6-.7-3.6.4-4.4 1.9-9.8 18.9-43.8 19.8-57 1.4-1.3-1.7-3.6-2.8-5.5-1.6Z" fill="#fff"/></g><g transform="matrix(.85472 0 0 .855 19 -17)"><path d="M340.9 289.1a48 48 0 0 1-43.1 6.7c-.2 0-.4.2-.2.4 21.5 24.5 37.8 6.1 43.6-6.8 0-.2-.2-.4-.3-.3ZM396 296a17.9 17.9 0 0 0 21.7 4.6c.2-.1.4.1.3.3-11.5 18.9-19.5 5.3-22.4-4.6 0-.2.2-.4.4-.2Z" fill="#2A1200"/><path d="M337 244.2a43.9 43.9 0 0 0-40.5 1.4c-4 2.3-6.6 7.7-4.5 12.3 1.9 4.2 7 6.9 11.2 4.5 1.3-.8 2.6-1.4 4-2 .4-.2 1.5-.4 1.9-.7l.6-.2a37.5 37.5 0 0 1 6.5-1.1h1.9a34.2 34.2 0 0 1 6.3.8l2 .6c1.3.4 2.6 1 4 1.6 4 2 9.6-.8 11.1-5.3 1.7-5-.3-9.8-4.6-11.9ZM423.5 248.5c-7.4-4-16-5-23.6-2.7-2 .6-4 2.4-4.8 4.4-1 2-1 4.8-.2 7a10 10 0 0 0 4.6 5.3 9 9 0 0 0 6.6.7l1.1-.3h3.6c1.4.1 2.8.5 4.2 1l1.4.6c2 1.1 4.6 1.4 6.7.7 2-.6 4-2.3 4.8-4.4.8-2 1.1-4.6.2-6.9-1-2.3-2.4-4.2-4.6-5.4Z" fill="#71472D"/></g><g transform="matrix(.85472 0 0 .85667 18 -15)"><path d="M274 104c88.8 2.4 132.5 65.5 141 98.5-55-8.7-191.5-34.5-210 15.5-41 111-15 243 0 297-55.2 4-123.7-15.7-151-26-5.5-6.5-1.7 19-10-104-14-208 102-250.5 140-267.5 30.4-13.6 73-16.2 90-13.5ZM438.5 486.5c-2.8-5.2-2.8-23.5-2.5-32a157 157 0 0 1-60.5 35c19.2 2.4 50-1 63-3Z" fill="#e2ba87"/><path d="M276.5 153.8c14.2-11.3 26.5-7.6 26.5-7.6-7.4 6.3-15.6 24.7-19.9 35.4l6.1-.4c12.8-12.3 24.6-25.4 24.6-25.4 2.3 4.8 1.1 16.8 0 24.6h2.3c4-10.3 9-26.6 9-26.6l17.4 6.1s-9.2-12-18.7-17c0 0 15.1-1.6 19.8 2.2 0 0-13.6-12.6-32.8-16.6 0 0 6.3-6.1 15-6 0 0-18.6-7.8-35.8-7.3 0 0 7-5.6 13.6-6 0 0-6.5-2.3-15.4-4.3-4.6-.5-9.3-.8-14.2-.9-5.5-.9-13.7-1.2-23.3-.7-13.3 1.6-35.3 8.5-35.3 8.5 16.3-3.9 34.6 5.6 34.6 5.6-10.9 6.7-12.4 22.3-12.4 22.3 9.3-8.5 30.4-12 30.4-12-16.6 8.3-27.1 34.8-27.1 34.8 21.8-27 49.9-25.4 49.9-25.4-7.4 3.9-14.3 16.7-14.3 16.7Z" fill="#000" fill-opacity=".2"/><path d="M286.8 271c74.1 1 126.3-9.9 143.2-15.5-2.4-38.2-27.9-112.2-115-114.5-87.1-2.3-133.4 74.4-145 114.5 25 13.5 80.4 14.7 105.3 15.4l7.2-32.3 4.3 32.3Z" fill="#e2ba87"/><path d="M193 172c-20 58.3-51.4 204-17 320-27.7-64.3-63-218.4 17-320ZM108 302c0-57.6 40-121.3 60-146-104.8 48-96.3 176.7-79 235-15.2-88.8 10.3-146.3 25-164-8 24.8-7.3 60.3-6 75ZM347 164c17.3 8.7 52.4 37.2 54 82 3.3-24.7-2.8-75.6-54-82ZM284 172c-6 10.3-17.8 36.8-17 60a50 50 0 0 1 17-60Z" fill="#000" fill-opacity=".2"/></g><g transform="matrix(.85472 0 0 .85667 14 -12)"></g></g></svg>