<svg xmlns="http://www.w3.org/2000/svg" viewBox="0 0 480 480" fill="none" shape-rendering="auto"><metadata xmlns:rdf="http://www.w3.org/1999/02/22-rdf-syntax-ns#" xmlns:xsi="http://www.w3.org/2001/XMLSchema-instance" xmlns:dc="http://purl.org/dc/elements/1.1/" xmlns:dcterms="http://purl.org/dc/terms/"><rdf:RDF><rdf:Description><dc:title>Custom Avatar</dc:title><dc:creator>Ashley Seo</dc:creator><dc:source xsi:type="dcterms:URI">https://www.figma.com/community/file/881358461963645496</dc:source><dcterms:license xsi:type="dcterms:URI">https://creativecommons.org/licenses/by/4.0/</dcterms:license><dc:rights>Remix of „Custom Avatar” (https://www.figma.com/community/file/881358461963645496) by „Ashley Seo”, licensed under „CC BY 4.0” (https://creativecommons.org/licenses/by/4.0/)</dc:rights></rdf:Description></rdf:RDF></metadata><mask id="viewboxMask"><rect width="480" height="480" rx="240" ry="240" x="0" y="0" fill="#fff" /></mask><g mask="url(#viewboxMask)"><rect fill="#ffd5dc" width="480" height="480" x="0" y="0" /><g transform="matrix(.85775 0 0 .85427 52 47)"><path d="M264 38.6s131.4 20.6 121.4 208.1c0 .7 15.2 10.9 16.4 12a77.1 77.1 0 0 1 23.4 36.3c13.9 51.3-35.7 104.2-75.8 118.2a155 155 0 0 1-46.7 8.3c-103.1 3-239.7-62.7-246.7-191a202.7 202.7 0 0 1 15.1-83.9c0 .1 57.4-142.5 192.9-108Z" fill="#ffe4c0"/><path d="M388.7 248.7a57 57 0 0 0-3.2 10.5 40 40 0 0 0 8.5 30.4 42.3 42.3 0 0 0 33 15.7c-3.2-31.7-29-50.7-38.3-56.6ZM203.5 332c24.4-5.2 39.6-31 33.9-57.5-5.7-26.5-30.2-43.7-54.6-38.5-24.4 5.3-39.5 31-33.8 57.6 5.7 26.5 30.1 43.7 54.5 38.5Z" fill="#DC2400" style="mix-blend-mode:multiply" opacity=".1"/><path opacity=".1" d="M323 257.9s20.9-19.9 37-1.2Z" fill="#000"/><path d="M128.7 356.9C59.3 391.7-3.7 304.4 16.5 255.3c12.9-31.4 50.4-33.8 72.1-5.2a185 185 0 0 1 29.1 59.1" fill="#ffe4c0"/><path opacity=".1" d="M71.5 279c9 9 16.1 22.5 25 30-1.7-12.5-4.3-26-10.4-37.3-6.2-11.6-17.5-21-29-20.3-14.2 1-25.9 17.6-27.4 32.6 1-9 19-15 25.9-14.2 10.8 20.4 15 60.6 15 60.6 9-22.7 5.4-40.7 1-51.5Z" fill="#000"/></g><g transform="matrix(.85472 0 0 .855 19 -17)"><path fill-rule="evenodd" clip-rule="evenodd" d="M386.9 358c1 0 2 .4 2.9 1.1 4.2 4 11.4 9.2 19.5 11.7 7.9 2.5 16 2.2 23-3.8a4 4 0 1 1 5.3 6 31 31 0 0 1-30.7 5.5 59.7 59.7 0 0 1-19.6-11 84.3 84.3 0 0 1-101.3 16 4 4 0 0 1 4-7 76.3 76.3 0 0 0 94-17.2 4 4 0 0 1 2.9-1.3Z" fill="#592125"/></g><g transform="matrix(.85472 0 0 .855 19 -17)"><path d="M340.9 308.9a48 48 0 0 0-43.1-6.7c-.2 0-.4-.2-.2-.4 21.5-24.5 37.8-6.1 43.6 6.8 0 .2-.2.4-.3.3ZM419 300.3c0 8-3.6 16.5-12.8 15.5-7.8-.8-9.7-11-9.7-16 0-8.7 4.4-17 10.8-17 6.8 0 11.7 9.5 11.7 17.5Z" fill="#2A1200"/><path d="M333.5 238.7a43.9 43.9 0 0 0-38.2 13.2c-3.2 3.4-4 9.3-.7 13 3 3.6 8.6 4.6 12 1l3.2-3c.4-.3 1.3-.8 1.6-1.2l.5-.4a37.7 37.7 0 0 1 6-3c.5 0 1.2-.4 1.7-.5a35.6 35.6 0 0 1 6.3-1.2h2l4.3.5c4.4.7 9-3.6 9.2-8.4.1-5.3-3.2-9.3-8-10ZM425.4 254.4a31.4 31.4 0 0 0-20.2-12.6c-2.1-.4-4.6.4-6.3 1.8a9.5 9.5 0 0 0-3.1 6.2c-.1 2.4.3 5 1.8 6.8a9 9 0 0 0 5.7 3.5l1.2.3c1 .4 2.1.8 3.2 1.4 1.2.8 2.3 1.7 3.3 2.7l1 1.3a8.8 8.8 0 0 0 5.8 3.5c2 .2 4.6-.4 6.2-2 1.7-1.5 3-3.6 3.2-6 .1-2.5-.4-5-1.8-7Z" fill="#71472D"/></g><g transform="matrix(.85472 0 0 .85667 18 -15)"><path d="M94.2 287.6c-.2 4.6-.1 9.2.1 13.8 38.5 6.4 56.7 47.2 61 66.8 0 0 11.4.6 14-1.5 14.3-7.4 39.5-37.5 27.1-99.1-6-28-1.9-50.4 47.8-85.2 49.6-34.9 128.5-13.3 144.6-.4 13 10.4 14.3 12 18.2 14.5-34.4-77.5-101.9-87.7-101.9-87.7-136.9-34.2-195.3 108.6-195.3 108.6-9 22-15 45.8-15.6 70.2Z" fill="#238d80"/></g><g transform="matrix(.85472 0 0 .85667 14 -12)"><path d="M192.2 102.9c11.2-17.1 55.8 14.7 77.3 33-29.2-1.8-45.2 37.3-50.4 56.4-9.2 9-24.5 10.7-30.7 10.7-3.4-26.3-7.3-83 3.8-100.1Z" fill="#A09B9B"/><path d="m185.5 171.4-.3-7 11.6 4-11.3 3ZM186.4 184.1l1.4 14c7.3-2.7 15.8-5.4 19.4-6.6l-20.8-7.4Z" fill="#C4C4C4"/><path d="M269.5 136c-28.5 9.7-45.5 41.2-50.4 55.7-22.3-27.9-33.6-76.6-22-89.1 9.3-10 52.1 18 72.4 33.3Z" fill="#FEB3A4"/><path d="M219.7 190c5.6-15 22.3-44.7 49.8-54l-6-4.4c-7.5-2.6-17.9-5-30-5.1-20.3-.4-18 40.5-13.8 63.6Z" fill="#FFE7E2"/><path d="M387.8 153.9c5.2 2 9.8 5.3 13 10.7 1-19.4 0-57.3-13.3-57.7-8-.3-21.3 7.7-33.3 16.7a164.3 164.3 0 0 1 33.6 30.3Z" fill="#A09B9B"/><path d="M401 171.8c0-18-2.6-60.3-11.4-62.2-7-1.5-18 7.6-26.6 20.4 14 10.9 27.3 25 38 41.8Z" fill="#FEB3A4"/><path d="M401 171.8c0-4.2-.2-9.5-.6-15.3-2-4.6-4.6-9.8-8-15.2-4.6-7.1-11.9-6.5-19.3-2.8a167.8 167.8 0 0 1 27.9 33.3Z" fill="#FFE7E2"/></g></g></svg>