<svg xmlns="http://www.w3.org/2000/svg" viewBox="0 0 480 480" fill="none" shape-rendering="auto"><metadata xmlns:rdf="http://www.w3.org/1999/02/22-rdf-syntax-ns#" xmlns:xsi="http://www.w3.org/2001/XMLSchema-instance" xmlns:dc="http://purl.org/dc/elements/1.1/" xmlns:dcterms="http://purl.org/dc/terms/"><rdf:RDF><rdf:Description><dc:title>Custom Avatar</dc:title><dc:creator>Ashley Seo</dc:creator><dc:source xsi:type="dcterms:URI">https://www.figma.com/community/file/881358461963645496</dc:source><dcterms:license xsi:type="dcterms:URI">https://creativecommons.org/licenses/by/4.0/</dcterms:license><dc:rights>Remix of „Custom Avatar” (https://www.figma.com/community/file/881358461963645496) by „Ashley Seo”, licensed under „CC BY 4.0” (https://creativecommons.org/licenses/by/4.0/)</dc:rights></rdf:Description></rdf:RDF></metadata><mask id="viewboxMask"><rect width="480" height="480" rx="240" ry="240" x="0" y="0" fill="#fff" /></mask><g mask="url(#viewboxMask)"><rect fill="#ffd5dc" width="480" height="480" x="0" y="0" /><g transform="matrix(.85775 0 0 .85427 52 47)"><path d="M264 38.6s131.4 20.6 121.4 208.1c0 .7 15.2 10.9 16.4 12a77.1 77.1 0 0 1 23.4 36.3c13.9 51.3-35.7 104.2-75.8 118.2a155 155 0 0 1-46.7 8.3c-103.1 3-239.7-62.7-246.7-191a202.7 202.7 0 0 1 15.1-83.9c0 .1 57.4-142.5 192.9-108Z" fill="#efcc9f"/><path d="M388.7 248.7a57 57 0 0 0-3.2 10.5 40 40 0 0 0 8.5 30.4 42.3 42.3 0 0 0 33 15.7c-3.2-31.7-29-50.7-38.3-56.6ZM203.5 332c24.4-5.2 39.6-31 33.9-57.5-5.7-26.5-30.2-43.7-54.6-38.5-24.4 5.3-39.5 31-33.8 57.6 5.7 26.5 30.1 43.7 54.5 38.5Z" fill="#DC2400" style="mix-blend-mode:multiply" opacity=".1"/><path opacity=".1" d="M323 257.9s20.9-19.9 37-1.2Z" fill="#000"/><path d="M128.7 356.9C59.3 391.7-3.7 304.4 16.5 255.3c12.9-31.4 50.4-33.8 72.1-5.2a185 185 0 0 1 29.1 59.1" fill="#efcc9f"/><path opacity=".1" d="M71.5 279c9 9 16.1 22.5 25 30-1.7-12.5-4.3-26-10.4-37.3-6.2-11.6-17.5-21-29-20.3-14.2 1-25.9 17.6-27.4 32.6 1-9 19-15 25.9-14.2 10.8 20.4 15 60.6 15 60.6 9-22.7 5.4-40.7 1-51.5Z" fill="#000"/></g><g transform="matrix(.85472 0 0 .855 19 -17)"><path d="M385.3 380.4c9.4.2 18.3-2.5 26-10.5 4-4.2 8.2-6.5 14-3 13.9 8.7 17.1 30.2 13.4 44.6a63.3 63.3 0 0 1-30.7 36.8c-38.2 22.4-67.6 17.4-106.8 3-30.8-11.2-72.5-33.9-62-72.9 13.2-48.3 69.6-25 101.4-12 13.5 5.5 29.6 13.5 44.7 14Z" fill="#fff"/><path d="m347 463.2-6-.8 22.7-86.7 5.7 1.9-22.3 85.6ZM426.9 433a68.7 68.7 0 0 1-5.1 5.3l-13-66 2.6-2.4c.8-.9 1.7-1.7 2.6-2.4l12.9 65.6ZM296.8 351.4 264.4 433a98.1 98.1 0 0 1-5-3.7l31.4-79 6 1.1Z" fill="#D1D3D4"/></g><g transform="matrix(.85472 0 0 .855 19 -17)"><path d="M343 294.4c0 14.8-9.4 26.8-28.7 24.3-14-3-21.3-8.8-21.3-24.3 0-16.2 7.8-27 21.4-29.2 20.9-3.3 28.6 14.4 28.5 29.2ZM419.2 290.9c0 11.8-4.9 24.4-17.2 23-10.3-1.3-13-16.3-13-23.7 0-13 6-25.1 14.5-25.2 9.2 0 15.7 14.1 15.7 25.9Z" fill="#2A1200"/><path d="M402.2 274c.2-1 1.6-1.1 1.9-.1l2.6 8.8c.2.5.6.8 1 .7l5.1-.8c.8 0 1.4.8 1 1.5l-4.2 7.1a1 1 0 0 0-.1.8l2.6 8.8c.2 1-1 1.8-1.7 1l-3.7-3.7a1 1 0 0 0-1.4.1l-5.7 7c-.6.7-1.8.3-1.7-.7l.7-10.3c0-.3 0-.5-.2-.7l-5.6-5.7c-.6-.5-.2-1.6.6-1.7l5.2-.8c.4 0 .7-.3.8-.8l2.8-10.5ZM318 272.7a1 1 0 0 1 1.9 0l4.7 11.5c.2.4.6.7 1 .6l9.7-1.2a1 1 0 0 1 .9 1.6l-7.2 8.2a1 1 0 0 0-.2 1l4.5 10.9a1 1 0 0 1-1.5 1.2l-8.4-5.7a1 1 0 0 0-1.2.1l-11.5 9.7a1 1 0 0 1-1.7-1l1.7-12.3a1 1 0 0 0-.4-1l-9-6a1 1 0 0 1 .4-1.8l9.8-1.3c.4 0 .7-.3.8-.6l5.7-14Z" fill="#fff"/><path d="M331.2 233.5c-13.3-4-28.5-.7-39.6 8.3-3.6 3-5.2 8.7-2.4 12.9 2.6 3.8 8 5.6 11.8 2.5 1.2-1 2.3-1.8 3.6-2.6l1.8-1 .5-.3a37.3 37.3 0 0 1 6.3-2.3l1.8-.3a33.9 33.9 0 0 1 6.4-.3c.7 0 1.3.2 2 .3 1.4.2 2.8.6 4.2 1 4.3 1.2 9.4-2.5 10.1-7.2.8-5.2-2-9.6-6.5-11ZM422.7 243.7c-6.5-5.4-14.6-8-22.6-7.4a8.1 8.1 0 0 0-5.6 3.3 9.5 9.5 0 0 0-1.6 6.8 10 10 0 0 0 3.4 6.2 9 9 0 0 0 6.4 2h1.1c1.2 0 2.3.3 3.5.6 1.3.4 2.6 1 4 1.8l1.2 1a8.8 8.8 0 0 0 6.4 2c2-.2 4.4-1.5 5.6-3.3 1.2-2 2-4.4 1.6-6.8-.5-2.4-1.5-4.6-3.4-6.2Z" fill="#71472D"/></g><g transform="matrix(.85472 0 0 .85667 18 -15)"><path d="M94.2 287.6c-.2 4.6-.1 9.2.1 13.8 38.5 6.4 56.7 47.2 61 66.8 0 0 11.4.6 14-1.5 14.3-7.4 39.5-37.5 27.1-99.1-6-28-1.9-50.4 47.8-85.2 49.6-34.9 128.5-13.3 144.6-.4 13 10.4 14.3 12 18.2 14.5-34.4-77.5-101.9-87.7-101.9-87.7-136.9-34.2-195.3 108.6-195.3 108.6-9 22-15 45.8-15.6 70.2Z" fill="#d56c0c"/></g><g transform="matrix(.85472 0 0 .85667 14 -12)"><path d="M393.5 329.7c9-5.2 30.7-14.3 45.7-9 8.7 3 14.9 9.9 20.3 16 6 6.5 11 12 17.3 10.7.3 0 .6.4.3.6-5.7 4.7-26 20-39.4 20.6-16.3.9-24.2-7-36.4-19l-3.8-3.7c-3.8 10.2-18 23.7-50.4 40-59 29.5-97.7-3-116.3-25-.3-.3.3-.8.6-.7 7.2 4.2 15.3.5 35.8-9 9.4-4.3 17.8-8.7 25.6-12.8 19.3-10.2 35.1-18.5 53-18.7a124.6 124.6 0 0 1 47.7 10Z" fill="#71472D"/><path d="M339.6 337.5c11-4.8 32.6-1 42 1.4-33-1-42.4 11.1-68.8 25.3a53.7 53.7 0 0 1-49.6 1c27.8 8.8 62.7-21.6 76.4-27.7ZM366.6 355.4c-8.3 7.6-28.2 22.8-42.3 23.2 10.5-7.9 33.5-23.5 42.3-23.2ZM411.3 332.8c4.6-2.2 15.8-5.1 24 .8 9.3 6.5 16.5 12.3 21.2 12.4-4.9.4-14-.2-21.4-5.4a48.2 48.2 0 0 0-23.8-7.8Z" fill="#5E351B"/></g></g></svg>