<svg xmlns="http://www.w3.org/2000/svg" viewBox="0 0 480 480" fill="none" shape-rendering="auto"><metadata xmlns:rdf="http://www.w3.org/1999/02/22-rdf-syntax-ns#" xmlns:xsi="http://www.w3.org/2001/XMLSchema-instance" xmlns:dc="http://purl.org/dc/elements/1.1/" xmlns:dcterms="http://purl.org/dc/terms/"><rdf:RDF><rdf:Description><dc:title>Custom Avatar</dc:title><dc:creator>Ashley Seo</dc:creator><dc:source xsi:type="dcterms:URI">https://www.figma.com/community/file/881358461963645496</dc:source><dcterms:license xsi:type="dcterms:URI">https://creativecommons.org/licenses/by/4.0/</dcterms:license><dc:rights>Remix of „Custom Avatar” (https://www.figma.com/community/file/881358461963645496) by „Ashley Seo”, licensed under „CC BY 4.0” (https://creativecommons.org/licenses/by/4.0/)</dc:rights></rdf:Description></rdf:RDF></metadata><mask id="viewboxMask"><rect width="480" height="480" rx="240" ry="240" x="0" y="0" fill="#fff" /></mask><g mask="url(#viewboxMask)"><rect fill="#ffdfbf" width="480" height="480" x="0" y="0" /><g transform="matrix(.85775 0 0 .85427 52 47)"><path d="M264 38.6s131.4 20.6 121.4 208.1c0 .7 15.2 10.9 16.4 12a77.1 77.1 0 0 1 23.4 36.3c13.9 51.3-35.7 104.2-75.8 118.2a155 155 0 0 1-46.7 8.3c-103.1 3-239.7-62.7-246.7-191a202.7 202.7 0 0 1 15.1-83.9c0 .1 57.4-142.5 192.9-108Z" fill="#f5d7b1"/><path d="M388.7 248.7a57 57 0 0 0-3.2 10.5 40 40 0 0 0 8.5 30.4 42.3 42.3 0 0 0 33 15.7c-3.2-31.7-29-50.7-38.3-56.6ZM203.5 332c24.4-5.2 39.6-31 33.9-57.5-5.7-26.5-30.2-43.7-54.6-38.5-24.4 5.3-39.5 31-33.8 57.6 5.7 26.5 30.1 43.7 54.5 38.5Z" fill="#DC2400" style="mix-blend-mode:multiply" opacity=".1"/><path opacity=".1" d="M323 257.9s20.9-19.9 37-1.2Z" fill="#000"/><path d="M128.7 356.9C59.3 391.7-3.7 304.4 16.5 255.3c12.9-31.4 50.4-33.8 72.1-5.2a185 185 0 0 1 29.1 59.1" fill="#f5d7b1"/><path opacity=".1" d="M71.5 279c9 9 16.1 22.5 25 30-1.7-12.5-4.3-26-10.4-37.3-6.2-11.6-17.5-21-29-20.3-14.2 1-25.9 17.6-27.4 32.6 1-9 19-15 25.9-14.2 10.8 20.4 15 60.6 15 60.6 9-22.7 5.4-40.7 1-51.5Z" fill="#000"/></g><g transform="matrix(.85472 0 0 .855 19 -17)"><path d="M351.7 357.8c35.7 2.3 57.8 0 65 0 30-4.5 42.7 48.4 5 76.2-11.2 8.3-16.7 7-40.7 7-24 0-50 9-64.5 4.9-41.1-11.6-48.3-41.4-44.7-57.8 5-22.1 15.2-34.4 80-30.3Z" fill="#fff"/><path d="m370.1 441.5-6 .7 3.3-83.6 6 .1-3.3 82.8ZM434.1 421.9c-1.5 2-3.2 4-5.1 5.9l-11-70.2c2-.2 4 0 6 .3l10.1 64ZM306.8 358.3 294.2 436c-2-1.3-3.8-2.6-5.4-4l11.7-72.5c2-.5 4-.8 6.3-1.2Z" fill="#D1D3D4"/></g><g transform="matrix(.85472 0 0 .855 19 -17)"><path d="M397 294.3a80.4 80.4 0 0 0 16.9-8.1c3.1 3.5 5 9 5 14 0 8-3.6 16.6-12.8 15.6-7.7-.8-9.7-11-9.7-16 0-1.9.2-3.8.6-5.5ZM301.2 283.1c-2.8 3.8-4.6 9-4.6 15.4 0 12.5 6.1 19 15.4 21.5 13 2 19.1-7.6 19.1-19.5a26 26 0 0 0-.8-6.4 49 49 0 0 1-29-11Z" fill="#2A1200"/><path d="M332 270.3a43.9 43.9 0 0 1-38.3-12.6c-3.3-3.3-4.2-9.2-1-13 3-3.6 8.6-4.7 12-1.2l3.3 3c.3.3 1.3.8 1.6 1.2l.6.3a37.7 37.7 0 0 0 6 3c.5 0 1.2.3 1.7.5a34.8 34.8 0 0 0 6.3 1h2c1.5-.2 2.9-.3 4.3-.6 4.4-.8 9 3.5 9.3 8.3.2 5.2-3 9.3-7.7 10.1ZM421.7 261.4c-6 6-13.8 9.5-21.8 9.7a8.1 8.1 0 0 1-6-2.8 9.5 9.5 0 0 1-2.1-6.5 10 10 0 0 1 2.7-6.5 9 9 0 0 1 6.2-2.7h1.1l3.4-1c1.3-.6 2.5-1.4 3.7-2.2l1.2-1.1c1.6-1.7 4-2.7 6.1-2.7 2.1 0 4.6 1 6 2.8 1.4 1.8 2.4 4 2.2 6.5-.2 2.5-1 4.8-2.7 6.5Z" fill="#71472D"/></g><g transform="matrix(.85472 0 0 .85667 18 -15)"><path d="M423 224.5c-25-104-115.5-123-152.5-121.5C106.1 105 69.7 238.2 72 310.5c1-2 3-3.5 3-3.5 13-7 20.5-5 23-5 43.5 2 58.8 53.5 56 75.5 7.9 7.4 18.7.2 23.3-2.9l.2-.1c3.6-2.4 0-13.5 0-20-9-42-7-102-4.5-102 2 0 29.5-2.3 40.5-4-.8-10.4-3.7-40.3 0-45.5-3.2 5.2 10.2 36.8 11.5 43 49.5 5 150.5-13 153.5-14.5 2.4-1.2-1-27.8-3-41 7.6 7.2 13.8 31.7 15 41 9.6-.8 25.7-5 32.5-7Z" fill="#71472d"/><path d="M283 119c23.3 1.7 77.4 16.2 107 61-11.7-24.3-49.4-70.6-107-61ZM331 167c7 9 21.2 33.6 22 60 5-10.7 7.6-37.6-22-60ZM132 251c4.8-53.6 40-93 57-106-64 20.8-78 89.3-77 121 .8-40 23.7-74 35-86-10.4 18.4-14.3 55-15 71Z" fill="#000" fill-opacity=".2"/></g><g transform="matrix(.85472 0 0 .85667 14 -12)"></g></g></svg>