<svg xmlns="http://www.w3.org/2000/svg" viewBox="0 0 480 480" fill="none" shape-rendering="auto"><metadata xmlns:rdf="http://www.w3.org/1999/02/22-rdf-syntax-ns#" xmlns:xsi="http://www.w3.org/2001/XMLSchema-instance" xmlns:dc="http://purl.org/dc/elements/1.1/" xmlns:dcterms="http://purl.org/dc/terms/"><rdf:RDF><rdf:Description><dc:title>Custom Avatar</dc:title><dc:creator>Ashley Seo</dc:creator><dc:source xsi:type="dcterms:URI">https://www.figma.com/community/file/881358461963645496</dc:source><dcterms:license xsi:type="dcterms:URI">https://creativecommons.org/licenses/by/4.0/</dcterms:license><dc:rights>Remix of „Custom Avatar” (https://www.figma.com/community/file/881358461963645496) by „Ashley Seo”, licensed under „CC BY 4.0” (https://creativecommons.org/licenses/by/4.0/)</dc:rights></rdf:Description></rdf:RDF></metadata><mask id="viewboxMask"><rect width="480" height="480" rx="240" ry="240" x="0" y="0" fill="#fff" /></mask><g mask="url(#viewboxMask)"><rect fill="#ffdfbf" width="480" height="480" x="0" y="0" /><g transform="matrix(.85775 0 0 .85427 52 47)"><path d="M264 38.6s131.4 20.6 121.4 208.1c0 .7 15.2 10.9 16.4 12a77.1 77.1 0 0 1 23.4 36.3c13.9 51.3-35.7 104.2-75.8 118.2a155 155 0 0 1-46.7 8.3c-103.1 3-239.7-62.7-246.7-191a202.7 202.7 0 0 1 15.1-83.9c0 .1 57.4-142.5 192.9-108Z" fill="#c99c62"/><path d="M388.7 248.7a57 57 0 0 0-3.2 10.5 40 40 0 0 0 8.5 30.4 42.3 42.3 0 0 0 33 15.7c-3.2-31.7-29-50.7-38.3-56.6ZM203.5 332c24.4-5.2 39.6-31 33.9-57.5-5.7-26.5-30.2-43.7-54.6-38.5-24.4 5.3-39.5 31-33.8 57.6 5.7 26.5 30.1 43.7 54.5 38.5Z" fill="#DC2400" style="mix-blend-mode:multiply" opacity=".1"/><path opacity=".1" d="M323 257.9s20.9-19.9 37-1.2Z" fill="#000"/><path d="M128.7 356.9C59.3 391.7-3.7 304.4 16.5 255.3c12.9-31.4 50.4-33.8 72.1-5.2a185 185 0 0 1 29.1 59.1" fill="#c99c62"/><path opacity=".1" d="M71.5 279c9 9 16.1 22.5 25 30-1.7-12.5-4.3-26-10.4-37.3-6.2-11.6-17.5-21-29-20.3-14.2 1-25.9 17.6-27.4 32.6 1-9 19-15 25.9-14.2 10.8 20.4 15 60.6 15 60.6 9-22.7 5.4-40.7 1-51.5Z" fill="#000"/></g><g transform="matrix(.85472 0 0 .855 19 -17)"><path d="M393.3 367c3 1.7 24.1-24.8 38.2-16.7 4.7 2.7 8.3 7.3 11 12.3 6 11 8 24.4 5.7 36.8a67 67 0 0 1-29 41.2c-37.4 25.5-67 20.7-106.8 6-31.4-11.7-74-35.6-65.2-78.7 15.6-76 146.1-1 146.1-1Z" fill="#873C41"/><path d="M285.3 362c10.2 6.4 22.5 7 33.6 4.5 2.1-.5 3.8 1.3 4.3 3.4 5.4 21 36 32 51.5 18.5 1.2-1 3.3-1.3 4.5-.1 8.3 7.8 21.6 10 31.4 4.6 13.8-7.5 13.7-28.6 10-43.3-12.2 3.7-25 18.7-27.3 17.3 0 0-80.1-46-122.3-29.4a31 31 0 0 0 14.3 24.6Z" fill="#fff"/><path d="M400.3 443.8c-22-20.1-48.9-31.4-76.2-39.3-23.4-6.9-49.7-11.3-73.4-4.5 11 23.5 39.2 38.2 61.7 46.6 34.8 12.9 61.8 18.2 93 2.2-1.7-1.7-3.3-3.4-5.1-5Z" fill="#EE7E8B"/></g><g transform="matrix(.85472 0 0 .855 19 -17)"><path d="M397 294.3a80.4 80.4 0 0 0 16.9-8.1c3.1 3.5 5 9 5 14 0 8-3.6 16.6-12.8 15.6-7.7-.8-9.7-11-9.7-16 0-1.9.2-3.8.6-5.5ZM301.2 283.1c-2.8 3.8-4.6 9-4.6 15.4 0 12.5 6.1 19 15.4 21.5 13 2 19.1-7.6 19.1-19.5a26 26 0 0 0-.8-6.4 49 49 0 0 1-29-11Z" fill="#2A1200"/><path d="M332 270.3a43.9 43.9 0 0 1-38.3-12.6c-3.3-3.3-4.2-9.2-1-13 3-3.6 8.6-4.7 12-1.2l3.3 3c.3.3 1.3.8 1.6 1.2l.6.3a37.7 37.7 0 0 0 6 3c.5 0 1.2.3 1.7.5a34.8 34.8 0 0 0 6.3 1h2c1.5-.2 2.9-.3 4.3-.6 4.4-.8 9 3.5 9.3 8.3.2 5.2-3 9.3-7.7 10.1ZM421.7 261.4c-6 6-13.8 9.5-21.8 9.7a8.1 8.1 0 0 1-6-2.8 9.5 9.5 0 0 1-2.1-6.5 10 10 0 0 1 2.7-6.5 9 9 0 0 1 6.2-2.7h1.1l3.4-1c1.3-.6 2.5-1.4 3.7-2.2l1.2-1.1c1.6-1.7 4-2.7 6.1-2.7 2.1 0 4.6 1 6 2.8 1.4 1.8 2.4 4 2.2 6.5-.2 2.5-1 4.8-2.7 6.5Z" fill="#71472D"/></g><g transform="matrix(.85472 0 0 .85667 18 -15)"><path d="M351 167c-32.5 45-106 137.5-207 170.5a44.3 44.3 0 0 0-41-23.5c-27.5.5-37.5 20.5-37.5 20.5s-32 53.5 42 87.5c20.5 4 27 4 43.5-3 11.2 8.7 46.6 38.2 59 43-3.2 16.8-8.8 58.8-1.2 78-14.5 1.3-49.8 8.7-77.8-6.5-2.8-17.1-5.3-39.5-.9-48-5.3 8.5-14.8 28.2-14.8 39.5-16-5.5-51.6-20.8-66-38C27 382 19 127.5 245 106c19.8-2.3 70.4-.3 104 22.5C391 157 412 195 420 233c-17.2-8-55-32.4-69-66ZM433.5 525c-6.8-9.6-2.8-53.2 0-68-28 23.5-44.5 35-102 36.5 10 15 49 20.5 53.5 22.5l8-5.5v8a215 215 0 0 0 40.5 6.5Z" fill="#238d80"/><path d="M312.6 153.6c18-1.6 26.3 8.2 26.3 8.2-13.9 1.6-42.8 23.7-42.9 23.7 20.7-2.8 46.7-9.8 46.7-9.8-.3 2.3-1.9 5.2-4 8.4 5.2-6.2 9.5-12 12.3-17.1a94.4 94.4 0 0 0 12.7 21.3 58.6 58.6 0 0 0-5.6-17.9s13.6 7 15.4 12.7c0 0-4.5-18-18.4-32 0 0 8.7-1.5 15.8 3.4 0 0-11.3-16.8-26-25.8h3.3l-1.7-1.2c-13-8.9-28.3-14.4-43.2-17.8-9.2 2.9-15.5 10.8-15.5 10.8 12.4-2 32 6.6 32 6.6-18.5-2-41.8 14.3-41.8 14.3a64.2 64.2 0 0 1 55.7 6.1c-8.3-.8-21 6.1-21 6.1Z" fill="#000" fill-opacity=".2"/><path d="M281 211c-14 17.7-59.6 60.6-130 91 22.3-14 79.6-51.8 130-91ZM95 302c40.8-86.4 123.7-135.3 160-149-93.6 16-156 108.3-175.5 152.5 3.6-1.6 11.8-3 15.5-3.5ZM74 406.5c2 2.5 7.8 6.4 11 8-1.3 22-3.2 64.5-2.2 83.3-2-18.9-4.5-50.8-3.8-68.3-3.7 13.3-9.9 17.8-5.5 73-4.7-35.7-11.9-74.4.5-96ZM408.5 476.5c2.8-1.2 7.5-4.5 9.5-6-3.6 6-2.2 36.2-1 50.5-2.4-2-4-9.5-4.5-13-1.6 5.2-4.7 5.5-4 13-4.4-10-.5-28.5 0-44.5ZM183.5 468.5c-4.8 43.6-2.5 55.5 1.5 74h-20c-7.2-35.2 11.2-52 18.5-74Z" fill="#000" fill-opacity=".2"/></g><g transform="matrix(.85472 0 0 .85667 14 -12)"><g fill-rule="evenodd" clip-rule="evenodd"><path d="m479 283.3-49-1.8-.5-10.5 49.8 2.3-.2 10Z" fill="#896307"/><path d="M304 220.7c-27.2 4.3-46 32.2-41.2 63 4.9 30.9 31.4 51.6 58.6 47.3 27.2-4.3 46.1-32.2 41.3-63-4.9-30.8-31.4-51.6-58.6-47.3ZM252.2 273c.5-30.6 20.9-57.4 50.3-62 33.3-5.3 64.4 20 70 55.6l3.3-1.2a27 27 0 0 1 13-.7c.6-12.5 4.2-24 10.2-33a40.6 40.6 0 0 1 31.5-19.8 42 42 0 0 1 34 16.3 70.9 70.9 0 0 1 15.8 40.8 69 69 0 0 1-10 42.3 40.6 40.6 0 0 1-31.6 19.7 42 42 0 0 1-34-16.2A70.6 70.6 0 0 1 389 275c-3.4-1.4-7-1.2-10.4-.2-2.1.6-4 1.5-5.3 2.2.3 31.3-20.3 59-50.3 63.8-33.4 5.2-64.4-20.1-70-55.6a73 73 0 0 1-.3-2.2l-86.4-14a102.2 102.2 0 0 0-44.4 2.6c-12 4-18.3 18.8-18.5 28l-9.9-.2c.3-15.3 11.4-32.6 25.3-37.3 13.8-4.6 31.7-5.3 48.8-3v.1l84.6 13.6Zm155-35.8a59 59 0 0 0-8.4 36c1 14.1 6.1 26.5 13.4 35 7.3 8.7 16.6 13.3 26 12.8 9.3-.5 17.8-6 23.8-15.2a59 59 0 0 0 8.4-36.1c-1-14.1-6-26.5-13.4-35-7.3-8.6-16.5-13.3-26-12.8-9.3.5-17.7 6-23.8 15.3Z" fill="#C5900F"/></g></g></g></svg>