<svg xmlns="http://www.w3.org/2000/svg" viewBox="0 0 480 480" fill="none" shape-rendering="auto"><metadata xmlns:rdf="http://www.w3.org/1999/02/22-rdf-syntax-ns#" xmlns:xsi="http://www.w3.org/2001/XMLSchema-instance" xmlns:dc="http://purl.org/dc/elements/1.1/" xmlns:dcterms="http://purl.org/dc/terms/"><rdf:RDF><rdf:Description><dc:title>Custom Avatar</dc:title><dc:creator>Ashley Seo</dc:creator><dc:source xsi:type="dcterms:URI">https://www.figma.com/community/file/881358461963645496</dc:source><dcterms:license xsi:type="dcterms:URI">https://creativecommons.org/licenses/by/4.0/</dcterms:license><dc:rights>Remix of „Custom Avatar” (https://www.figma.com/community/file/881358461963645496) by „Ashley Seo”, licensed under „CC BY 4.0” (https://creativecommons.org/licenses/by/4.0/)</dc:rights></rdf:Description></rdf:RDF></metadata><mask id="viewboxMask"><rect width="480" height="480" rx="240" ry="240" x="0" y="0" fill="#fff" /></mask><g mask="url(#viewboxMask)"><rect fill="#c0aede" width="480" height="480" x="0" y="0" /><g transform="matrix(.85775 0 0 .85427 52 47)"><path d="M264 38.6s131.4 20.6 121.4 208.1c0 .7 15.2 10.9 16.4 12a77.1 77.1 0 0 1 23.4 36.3c13.9 51.3-35.7 104.2-75.8 118.2a155 155 0 0 1-46.7 8.3c-103.1 3-239.7-62.7-246.7-191a202.7 202.7 0 0 1 15.1-83.9c0 .1 57.4-142.5 192.9-108Z" fill="#c99c62"/><path d="M388.7 248.7a57 57 0 0 0-3.2 10.5 40 40 0 0 0 8.5 30.4 42.3 42.3 0 0 0 33 15.7c-3.2-31.7-29-50.7-38.3-56.6ZM203.5 332c24.4-5.2 39.6-31 33.9-57.5-5.7-26.5-30.2-43.7-54.6-38.5-24.4 5.3-39.5 31-33.8 57.6 5.7 26.5 30.1 43.7 54.5 38.5Z" fill="#DC2400" style="mix-blend-mode:multiply" opacity=".1"/><path opacity=".1" d="M323 257.9s20.9-19.9 37-1.2Z" fill="#000"/><path d="M128.7 356.9C59.3 391.7-3.7 304.4 16.5 255.3c12.9-31.4 50.4-33.8 72.1-5.2a185 185 0 0 1 29.1 59.1" fill="#c99c62"/><path opacity=".1" d="M71.5 279c9 9 16.1 22.5 25 30-1.7-12.5-4.3-26-10.4-37.3-6.2-11.6-17.5-21-29-20.3-14.2 1-25.9 17.6-27.4 32.6 1-9 19-15 25.9-14.2 10.8 20.4 15 60.6 15 60.6 9-22.7 5.4-40.7 1-51.5Z" fill="#000"/></g><g transform="matrix(.85472 0 0 .855 19 -17)"><path fill-rule="evenodd" clip-rule="evenodd" d="M317 384a4 4 0 0 1 4-4h92a4 4 0 0 1 0 8h-92a4 4 0 0 1-4-4Z" fill="#592125"/></g><g transform="matrix(.85472 0 0 .855 19 -17)"><path d="M343 294.4c0 14.8-9.4 26.8-28.7 24.3-14-3-21.3-8.8-21.3-24.3 0-16.2 7.8-27 21.4-29.2 20.9-3.3 28.6 14.4 28.5 29.2ZM419.2 290.9c0 11.8-4.9 24.4-17.2 23-10.3-1.3-13-16.3-13-23.7 0-13 6-25.1 14.5-25.2 9.2 0 15.7 14.1 15.7 25.9Z" fill="#2A1200"/><path d="M402.2 274c.2-1 1.6-1.1 1.9-.1l2.6 8.8c.2.5.6.8 1 .7l5.1-.8c.8 0 1.4.8 1 1.5l-4.2 7.1a1 1 0 0 0-.1.8l2.6 8.8c.2 1-1 1.8-1.7 1l-3.7-3.7a1 1 0 0 0-1.4.1l-5.7 7c-.6.7-1.8.3-1.7-.7l.7-10.3c0-.3 0-.5-.2-.7l-5.6-5.7c-.6-.5-.2-1.6.6-1.7l5.2-.8c.4 0 .7-.3.8-.8l2.8-10.5ZM318 272.7a1 1 0 0 1 1.9 0l4.7 11.5c.2.4.6.7 1 .6l9.7-1.2a1 1 0 0 1 .9 1.6l-7.2 8.2a1 1 0 0 0-.2 1l4.5 10.9a1 1 0 0 1-1.5 1.2l-8.4-5.7a1 1 0 0 0-1.2.1l-11.5 9.7a1 1 0 0 1-1.7-1l1.7-12.3a1 1 0 0 0-.4-1l-9-6a1 1 0 0 1 .4-1.8l9.8-1.3c.4 0 .7-.3.8-.6l5.7-14Z" fill="#fff"/><path d="M331.2 233.5c-13.3-4-28.5-.7-39.6 8.3-3.6 3-5.2 8.7-2.4 12.9 2.6 3.8 8 5.6 11.8 2.5 1.2-1 2.3-1.8 3.6-2.6l1.8-1 .5-.3a37.3 37.3 0 0 1 6.3-2.3l1.8-.3a33.9 33.9 0 0 1 6.4-.3c.7 0 1.3.2 2 .3 1.4.2 2.8.6 4.2 1 4.3 1.2 9.4-2.5 10.1-7.2.8-5.2-2-9.6-6.5-11ZM422.7 243.7c-6.5-5.4-14.6-8-22.6-7.4a8.1 8.1 0 0 0-5.6 3.3 9.5 9.5 0 0 0-1.6 6.8 10 10 0 0 0 3.4 6.2 9 9 0 0 0 6.4 2h1.1c1.2 0 2.3.3 3.5.6 1.3.4 2.6 1 4 1.8l1.2 1a8.8 8.8 0 0 0 6.4 2c2-.2 4.4-1.5 5.6-3.3 1.2-2 2-4.4 1.6-6.8-.5-2.4-1.5-4.6-3.4-6.2Z" fill="#71472D"/></g><g transform="matrix(.85472 0 0 .85667 18 -15)"><path d="M423 224.5c-25-104-115.5-123-152.5-121.5C106.1 105 69.7 238.2 72 310.5c1-2 3-3.5 3-3.5 13-7 20.5-5 23-5 43.5 2 58.8 53.5 56 75.5 7.9 7.4 18.7.2 23.3-2.9l.2-.1c3.6-2.4 0-13.5 0-20-9-42-7-102-4.5-102 2 0 29.5-2.3 40.5-4-.8-10.4-3.7-40.3 0-45.5-3.2 5.2 10.2 36.8 11.5 43 49.5 5 150.5-13 153.5-14.5 2.4-1.2-1-27.8-3-41 7.6 7.2 13.8 31.7 15 41 9.6-.8 25.7-5 32.5-7Z" fill="#220f00"/><path d="M283 119c23.3 1.7 77.4 16.2 107 61-11.7-24.3-49.4-70.6-107-61ZM331 167c7 9 21.2 33.6 22 60 5-10.7 7.6-37.6-22-60ZM132 251c4.8-53.6 40-93 57-106-64 20.8-78 89.3-77 121 .8-40 23.7-74 35-86-10.4 18.4-14.3 55-15 71Z" fill="#000" fill-opacity=".2"/></g><g transform="matrix(.85472 0 0 .85667 14 -12)"><path d="M192.2 102.9c11.2-17.1 55.8 14.7 77.3 33-29.2-1.8-45.2 37.3-50.4 56.4-9.2 9-24.5 10.7-30.7 10.7-3.4-26.3-7.3-83 3.8-100.1Z" fill="#A09B9B"/><path d="m185.5 171.4-.3-7 11.6 4-11.3 3ZM186.4 184.1l1.4 14c7.3-2.7 15.8-5.4 19.4-6.6l-20.8-7.4Z" fill="#C4C4C4"/><path d="M269.5 136c-28.5 9.7-45.5 41.2-50.4 55.7-22.3-27.9-33.6-76.6-22-89.1 9.3-10 52.1 18 72.4 33.3Z" fill="#FEB3A4"/><path d="M219.7 190c5.6-15 22.3-44.7 49.8-54l-6-4.4c-7.5-2.6-17.9-5-30-5.1-20.3-.4-18 40.5-13.8 63.6Z" fill="#FFE7E2"/><path d="M387.8 153.9c5.2 2 9.8 5.3 13 10.7 1-19.4 0-57.3-13.3-57.7-8-.3-21.3 7.7-33.3 16.7a164.3 164.3 0 0 1 33.6 30.3Z" fill="#A09B9B"/><path d="M401 171.8c0-18-2.6-60.3-11.4-62.2-7-1.5-18 7.6-26.6 20.4 14 10.9 27.3 25 38 41.8Z" fill="#FEB3A4"/><path d="M401 171.8c0-4.2-.2-9.5-.6-15.3-2-4.6-4.6-9.8-8-15.2-4.6-7.1-11.9-6.5-19.3-2.8a167.8 167.8 0 0 1 27.9 33.3Z" fill="#FFE7E2"/></g></g></svg>