<svg xmlns="http://www.w3.org/2000/svg" viewBox="0 0 480 480" fill="none" shape-rendering="auto"><metadata xmlns:rdf="http://www.w3.org/1999/02/22-rdf-syntax-ns#" xmlns:xsi="http://www.w3.org/2001/XMLSchema-instance" xmlns:dc="http://purl.org/dc/elements/1.1/" xmlns:dcterms="http://purl.org/dc/terms/"><rdf:RDF><rdf:Description><dc:title>Custom Avatar</dc:title><dc:creator>Ashley Seo</dc:creator><dc:source xsi:type="dcterms:URI">https://www.figma.com/community/file/881358461963645496</dc:source><dcterms:license xsi:type="dcterms:URI">https://creativecommons.org/licenses/by/4.0/</dcterms:license><dc:rights>Remix of „Custom Avatar” (https://www.figma.com/community/file/881358461963645496) by „Ashley Seo”, licensed under „CC BY 4.0” (https://creativecommons.org/licenses/by/4.0/)</dc:rights></rdf:Description></rdf:RDF></metadata><mask id="viewboxMask"><rect width="480" height="480" rx="240" ry="240" x="0" y="0" fill="#fff" /></mask><g mask="url(#viewboxMask)"><rect fill="#ffdfbf" width="480" height="480" x="0" y="0" /><g transform="matrix(.85775 0 0 .85427 52 47)"><path d="M264 38.6s131.4 20.6 121.4 208.1c0 .7 15.2 10.9 16.4 12a77.1 77.1 0 0 1 23.4 36.3c13.9 51.3-35.7 104.2-75.8 118.2a155 155 0 0 1-46.7 8.3c-103.1 3-239.7-62.7-246.7-191a202.7 202.7 0 0 1 15.1-83.9c0 .1 57.4-142.5 192.9-108Z" fill="#e2ba87"/><path d="M388.7 248.7a57 57 0 0 0-3.2 10.5 40 40 0 0 0 8.5 30.4 42.3 42.3 0 0 0 33 15.7c-3.2-31.7-29-50.7-38.3-56.6ZM203.5 332c24.4-5.2 39.6-31 33.9-57.5-5.7-26.5-30.2-43.7-54.6-38.5-24.4 5.3-39.5 31-33.8 57.6 5.7 26.5 30.1 43.7 54.5 38.5Z" fill="#DC2400" style="mix-blend-mode:multiply" opacity=".1"/><path opacity=".1" d="M323 257.9s20.9-19.9 37-1.2Z" fill="#000"/><path d="M128.7 356.9C59.3 391.7-3.7 304.4 16.5 255.3c12.9-31.4 50.4-33.8 72.1-5.2a185 185 0 0 1 29.1 59.1" fill="#e2ba87"/><path opacity=".1" d="M71.5 279c9 9 16.1 22.5 25 30-1.7-12.5-4.3-26-10.4-37.3-6.2-11.6-17.5-21-29-20.3-14.2 1-25.9 17.6-27.4 32.6 1-9 19-15 25.9-14.2 10.8 20.4 15 60.6 15 60.6 9-22.7 5.4-40.7 1-51.5Z" fill="#000"/></g><g transform="matrix(.85472 0 0 .855 19 -17)"><path d="M311.4 362.3C339 346 362.6 345 379.3 344c33.3-2 61.1 8.8 68.5 42.7 6.8 31.2-16.9 49.4-27.8 49-11-.3-13.3-12.2-39.3-12.8-26-.6-63.4 42.9-85.5 26.6-22.2-16.4-18.4-66.6 16.2-87Z" fill="#873C41"/><path d="M433.3 430.2a22.8 22.8 0 0 1-13.1 5.3c-4.3-.1-7.3-2-10.9-4.4-5.5-3.6-12.6-8.1-28.5-8.5-11-.2-24.1 7.4-37.2 15.1-17.8 10.4-35.6 20.9-48.4 11.5-11.7-8.6-16.1-26.4-12.8-44.4 20-6 42.3-5.6 62.8-3.3 29.5 3.3 59.2 10 85.4 26.8a84 84 0 0 1 2.7 1.9Z" fill="#EE7E8B"/><path d="M333.4 368.5a46.8 46.8 0 0 1-37.9 7.5c4.3-5.3 9.6-10 15.9-13.7a136.3 136.3 0 0 1 68-18.4c21.6-1.4 40.8 2.7 53.8 14.9l-.6.7a29 29 0 0 1-32.3 7.3c-1.6-.7-3.6.4-4.4 1.9-9.8 18.9-43.8 19.8-57 1.4-1.3-1.7-3.6-2.8-5.5-1.6Z" fill="#fff"/></g><g transform="matrix(.85472 0 0 .855 19 -17)"><path d="M397 294.3a80.4 80.4 0 0 0 16.9-8.1c3.1 3.5 5 9 5 14 0 8-3.6 16.6-12.8 15.6-7.7-.8-9.7-11-9.7-16 0-1.9.2-3.8.6-5.5ZM301.2 283.1c-2.8 3.8-4.6 9-4.6 15.4 0 12.5 6.1 19 15.4 21.5 13 2 19.1-7.6 19.1-19.5a26 26 0 0 0-.8-6.4 49 49 0 0 1-29-11Z" fill="#2A1200"/><path d="M332 270.3a43.9 43.9 0 0 1-38.3-12.6c-3.3-3.3-4.2-9.2-1-13 3-3.6 8.6-4.7 12-1.2l3.3 3c.3.3 1.3.8 1.6 1.2l.6.3a37.7 37.7 0 0 0 6 3c.5 0 1.2.3 1.7.5a34.8 34.8 0 0 0 6.3 1h2c1.5-.2 2.9-.3 4.3-.6 4.4-.8 9 3.5 9.3 8.3.2 5.2-3 9.3-7.7 10.1ZM421.7 261.4c-6 6-13.8 9.5-21.8 9.7a8.1 8.1 0 0 1-6-2.8 9.5 9.5 0 0 1-2.1-6.5 10 10 0 0 1 2.7-6.5 9 9 0 0 1 6.2-2.7h1.1l3.4-1c1.3-.6 2.5-1.4 3.7-2.2l1.2-1.1c1.6-1.7 4-2.7 6.1-2.7 2.1 0 4.6 1 6 2.8 1.4 1.8 2.4 4 2.2 6.5-.2 2.5-1 4.8-2.7 6.5Z" fill="#71472D"/></g><g transform="matrix(.85472 0 0 .85667 18 -15)"><path d="M179.3 164.8c-43.7 0-79.1-38.4-79.1-85.9 0-47.4 35.4-85.9 79-85.9 43.7 0 79.1 38.5 79.1 86 0 47.4-35.4 85.8-79 85.8Z" fill="#220f00"/><path d="M179.3 164.8c-43.7 0-79.1-38.4-79.1-85.9 0-8 1-15.6 2.8-22.9 12.7 9.5 61 22.8 152.5 0a93 93 0 0 1 2.8 23c0 47.4-35.4 85.8-79 85.8Z" fill="#000" fill-opacity=".2"/><path d="M137 305c4.6-46.4 79-85.4 79-85.4a66.5 66.5 0 0 1-8.5 20.3c-1.5 2.4 0 5.5 2.6 5.7 70 5.5 160.2-70.1 160.2-70.1 19 24.5 41 58.5 52.2 69.9 1.6 1.6 4.2.3 4.1-2.1C422.4 83 268 51.2 163.4 86.4 67.7 118.7-12 243.7 54.4 335c3.7-11.7 17.7-34.3 44-31.5 4.4 1 16 6 27.6 18 1.7 1.9 16 7 11-16.5Z" fill="#220f00"/><path opacity=".1" d="M356 157.1s-8.3-9.8-26.3-8.2c0 0 12.7-7 21-6 0 0-22.6-16.8-55.6-6.2 0 0 23.3-16.4 41.7-14.3 0 0-19.6-8.6-32-6.6 0 0 9.8-12.2 22.6-11.8 0 0-10.2-18-26-23.7 0 0 31.6 9 40 15.5 18.3 7.8 35.3 30.7 35.3 30.7-5.7-3.3-14.7-2.5-14.7-2.5 14.7 9 26 25.8 26 25.8-7.2-5-15.8-3.3-15.8-3.3a76.7 76.7 0 0 1 18.4 31.9c-1.9-5.8-15.4-12.7-15.4-12.7a71.7 71.7 0 0 1 6.4 24.5l-11.3-14.7s-23 19.2-29 21.7c0 0 17.3-18 18.4-26.2 0 0-26 7-46.6 9.8 0 0 29-22 42.9-23.7Z" fill="#000"/></g><g transform="matrix(.85472 0 0 .85667 14 -12)"><path fill-rule="evenodd" clip-rule="evenodd" d="M158.8 304a359.4 359.4 0 0 1 59.6 32l-2.8 4c-13.9-9.2-36.4-22.2-58.6-31.3-11.2-4.5-22.1-8-32-9.5a40 40 0 0 0-23.9 2l-2.2-4.4a44.7 44.7 0 0 1 27-2.5c10.2 1.6 21.6 5.2 33 9.8Zm57 122.4 9.1-2.3 1.2 4.8-8.5 2.2c-7.4 2-14 3.7-20.7 4.3-9.5.8-19.3-.7-32.4-6.6l2-4.6c12.5 5.7 21.5 7 30 6.2 6.2-.5 12.2-2.1 19.4-4Z" fill="#fff"/><path d="M386.5 311A664.6 664.6 0 0 0 217 334.5c14 24 19 59.5 5 95.5 45.9 26 153.8 66.6 218.3 21a123.2 123.2 0 0 0 31.2-57c9.6-39.6-23-68.8-40.5-78.5-9.6-1.6-28.5-4.4-44.5-4.5Z" fill="#F7F7F7"/><path d="M211.5 338.5c2.4-4 13-7.2 19-7.5 3 3 9.2 17.1 10 49.5 1 40.5-7 52-8 54.5-.7 1.9-14-5-17-6.5s-3-4.5 0-11c6.5-14 3-54.5 0-63.5-2.4-7.2-3-12.8-4-15.5Z" fill="#EDEDED"/><path d="M409 344c-35.2-4.8-106 18-137 30 114.4-28.8 181.7-12 201 0-6.7-8-28.8-25.2-64-30ZM312 403c26 12.3 91.4 31.2 145 8-25 20-89 46.4-145-8Z" fill="#EDEDED"/></g></g></svg>